<svg xmlns="http://www.w3.org/2000/svg" xmlns:xlink="http://www.w3.org/1999/xlink" contentStyleType="text/css" data-diagram-type="ACTIVITY" height="1442px" preserveAspectRatio="none" style="width:751px;height:1442px;background:#FFFFFF;" version="1.1" viewBox="0 0 751 1442" width="751px" zoomAndPan="magnify"><defs/><g><ellipse cx="344.1504" cy="20" fill="#222222" rx="10" ry="10" style="stroke:#222222;stroke-width:1;"/><rect fill="#F1F1F1" height="33.9688" rx="12.5" ry="12.5" style="stroke:#181818;stroke-width:0.5;" width="124.9004" x="281.7002" y="50"/><text fill="#000000" font-family="sans-serif" font-size="12" lengthAdjust="spacing" textLength="104.9004" x="291.7002" y="71.1387">Create Campaign</text><rect fill="#F1F1F1" height="33.9688" rx="12.5" ry="12.5" style="stroke:#181818;stroke-width:0.5;" width="182.3574" x="252.9717" y="103.9688"/><text fill="#000000" font-family="sans-serif" font-size="12" lengthAdjust="spacing" textLength="162.3574" x="262.9717" y="125.1074">Define Accumulation Goals</text><rect fill="#F1F1F1" height="33.9688" rx="12.5" ry="12.5" style="stroke:#181818;stroke-width:0.5;" width="197.5273" x="245.3867" y="157.9375"/><text fill="#000000" font-family="sans-serif" font-size="12" lengthAdjust="spacing" textLength="177.5273" x="255.3867" y="179.0762">Select &amp; Configure Strategies</text><rect fill="#F1F1F1" height="33.9688" rx="12.5" ry="12.5" style="stroke:#181818;stroke-width:0.5;" width="115.2324" x="286.5342" y="211.9063"/><text fill="#000000" font-family="sans-serif" font-size="12" lengthAdjust="spacing" textLength="95.2324" x="296.5342" y="233.0449">Allocate Budget</text><rect fill="#F1F1F1" height="33.9688" rx="12.5" ry="12.5" style="stroke:#181818;stroke-width:0.5;" width="114.0781" x="287.1113" y="265.875"/><text fill="#000000" font-family="sans-serif" font-size="12" lengthAdjust="spacing" textLength="94.0781" x="297.1113" y="287.0137">Start Campaign</text><rect fill="#F1F1F1" height="33.9688" rx="12.5" ry="12.5" style="stroke:#181818;stroke-width:0.5;" width="193.4375" x="247.4316" y="319.8438"/><text fill="#000000" font-family="sans-serif" font-size="12" lengthAdjust="spacing" textLength="173.4375" x="257.4316" y="340.9824">Initialize Strategy Monitoring</text><rect fill="#F1F1F1" height="33.9688" rx="12.5" ry="12.5" style="stroke:#181818;stroke-width:0.5;" width="180.1074" x="254.0967" y="417.8125"/><text fill="#000000" font-family="sans-serif" font-size="12" lengthAdjust="spacing" textLength="160.1074" x="264.0967" y="438.9512">Analyze Market Conditions</text><rect fill="#555555" height="6" rx="2.5" ry="2.5" style="stroke:#555555;stroke-width:1;" width="686.3008" x="11" y="471.7813"/><rect fill="#F1F1F1" height="33.9688" rx="12.5" ry="12.5" style="stroke:#181818;stroke-width:0.5;" width="138.1133" x="23" y="497.7813"/><text fill="#000000" font-family="sans-serif" font-size="12" lengthAdjust="spacing" textLength="118.1133" x="33" y="518.9199">Execute Smart DCA</text><rect fill="#F1F1F1" height="33.9688" rx="12.5" ry="12.5" style="stroke:#181818;stroke-width:0.5;" width="146.9609" x="171.1133" y="497.7813"/><text fill="#000000" font-family="sans-serif" font-size="12" lengthAdjust="spacing" textLength="126.9609" x="181.1133" y="518.9199">Execute Grid Trading</text><rect fill="#F1F1F1" height="33.9688" rx="12.5" ry="12.5" style="stroke:#181818;stroke-width:0.5;" width="134.0176" x="346.0742" y="497.7813"/><text fill="#000000" font-family="sans-serif" font-size="12" lengthAdjust="spacing" textLength="114.0176" x="356.0742" y="518.9199">Execute Short DCA</text><rect fill="#F1F1F1" height="33.9688" rx="12.5" ry="12.5" style="stroke:#181818;stroke-width:0.5;" width="175.209" x="508.0918" y="497.7813"/><text fill="#000000" font-family="sans-serif" font-size="12" lengthAdjust="spacing" textLength="155.209" x="518.0918" y="518.9199">Execute Bear Market DCA</text><rect fill="#555555" height="6" rx="2.5" ry="2.5" style="stroke:#555555;stroke-width:1;" width="686.3008" x="11" y="551.75"/><rect fill="#F1F1F1" height="33.9688" rx="12.5" ry="12.5" style="stroke:#181818;stroke-width:0.5;" width="183.9863" x="252.1572" y="577.75"/><text fill="#000000" font-family="sans-serif" font-size="12" lengthAdjust="spacing" textLength="163.9863" x="262.1572" y="598.8887">Update Campaign Progress</text><rect fill="#F1F1F1" height="33.9688" rx="12.5" ry="12.5" style="stroke:#181818;stroke-width:0.5;" width="170.8672" x="258.7168" y="631.7188"/><text fill="#000000" font-family="sans-serif" font-size="12" lengthAdjust="spacing" textLength="150.8672" x="268.7168" y="652.8574">Check Goal Achievement</text><rect fill="#F1F1F1" height="33.9688" rx="12.5" ry="12.5" style="stroke:#181818;stroke-width:0.5;" width="175.9238" x="256.1885" y="734.0898"/><text fill="#000000" font-family="sans-serif" font-size="12" lengthAdjust="spacing" textLength="155.9238" x="266.1885" y="755.2285">Adjust Strategy Allocation</text><rect fill="#F1F1F1" height="33.9688" rx="12.5" ry="12.5" style="stroke:#181818;stroke-width:0.5;" width="218.2461" x="235.0273" y="803.0586"/><text fill="#000000" font-family="sans-serif" font-size="12" lengthAdjust="spacing" textLength="198.2461" x="245.0273" y="824.1973">Switch/Enable/Disable Strategies</text><polygon fill="#F1F1F1" points="274.7371,685.6875,413.5637,685.6875,425.5637,697.6875,413.5637,709.6875,274.7371,709.6875,262.7371,697.6875,274.7371,685.6875" style="stroke:#181818;stroke-width:0.5;"/><text fill="#000000" font-family="sans-serif" font-size="11" lengthAdjust="spacing" textLength="19.0083" x="348.1504" y="719.8979">yes</text><text fill="#000000" font-family="sans-serif" font-size="11" lengthAdjust="spacing" textLength="138.8267" x="274.7371" y="701.4956">Strategy Switch Needed?</text><polygon fill="#F1F1F1" points="344.1504,857.0273,356.1504,869.0273,344.1504,881.0273,332.1504,869.0273,344.1504,857.0273" style="stroke:#181818;stroke-width:0.5;"/><path d="M446.2998,968.8477 L446.2998,977.4141 L426.2998,981.4141 L446.2998,985.4141 L446.2998,993.9805 A0,0 0 0 0 446.2998,993.9805 L697.7578,993.9805 A0,0 0 0 0 697.7578,993.9805 L697.7578,978.8477 L687.7578,968.8477 L446.2998,968.8477 A0,0 0 0 0 446.2998,968.8477" fill="#FEFFDD" style="stroke:#181818;stroke-width:0.5;"/><path d="M687.7578,968.8477 L687.7578,978.8477 L697.7578,978.8477 L687.7578,968.8477" fill="#FEFFDD" style="stroke:#181818;stroke-width:0.5;"/><text fill="#000000" font-family="sans-serif" font-size="13" lengthAdjust="spacing" textLength="230.458" x="452.2998" y="985.9146">Emergency, Graceful, or Scheduled</text><rect fill="#F1F1F1" height="33.9688" rx="12.5" ry="12.5" style="stroke:#181818;stroke-width:0.5;" width="164.2988" x="262.001" y="964.4297"/><text fill="#000000" font-family="sans-serif" font-size="12" lengthAdjust="spacing" textLength="144.2988" x="272.001" y="985.5684">Execute Stop Procedure</text><ellipse cx="344.1504" cy="1037.9141" fill="none" rx="11" ry="11" style="stroke:#222222;stroke-width:1;"/><ellipse cx="344.1504" cy="1037.9141" fill="#222222" rx="6" ry="6" style="stroke:#222222;stroke-width:1;"/><polygon fill="#F1F1F1" points="288.6992,916.0273,399.6016,916.0273,411.6016,928.0273,399.6016,940.0273,288.6992,940.0273,276.6992,928.0273,288.6992,916.0273" style="stroke:#181818;stroke-width:0.5;"/><text fill="#000000" font-family="sans-serif" font-size="11" lengthAdjust="spacing" textLength="19.0083" x="348.1504" y="950.2378">yes</text><text fill="#000000" font-family="sans-serif" font-size="11" lengthAdjust="spacing" textLength="110.9023" x="288.6992" y="931.8354">Stop Condition Met?</text><rect fill="#F1F1F1" height="33.9688" rx="12.5" ry="12.5" style="stroke:#181818;stroke-width:0.5;" width="142.5957" x="272.8525" y="1139.3164"/><text fill="#000000" font-family="sans-serif" font-size="12" lengthAdjust="spacing" textLength="122.5957" x="282.8525" y="1160.4551">Complete Campaign</text><rect fill="#F1F1F1" height="33.9688" rx="12.5" ry="12.5" style="stroke:#181818;stroke-width:0.5;" width="152.5215" x="267.8896" y="1193.2852"/><text fill="#000000" font-family="sans-serif" font-size="12" lengthAdjust="spacing" textLength="132.5215" x="277.8896" y="1214.4238">Generate Final Report</text><ellipse cx="344.1504" cy="1258.2539" fill="none" rx="11" ry="11" style="stroke:#222222;stroke-width:1;"/><ellipse cx="344.1504" cy="1258.2539" fill="#222222" rx="6" ry="6" style="stroke:#222222;stroke-width:1;"/><polygon fill="#F1F1F1" points="298.7781,1090.9141,389.5227,1090.9141,401.5227,1102.9141,389.5227,1114.9141,298.7781,1114.9141,286.7781,1102.9141,298.7781,1090.9141" style="stroke:#181818;stroke-width:0.5;"/><text fill="#000000" font-family="sans-serif" font-size="11" lengthAdjust="spacing" textLength="19.0083" x="348.1504" y="1125.1245">yes</text><text fill="#000000" font-family="sans-serif" font-size="11" lengthAdjust="spacing" textLength="90.7446" x="298.7781" y="1106.7222">Goals Achieved?</text><rect fill="#F1F1F1" height="33.9688" rx="12.5" ry="12.5" style="stroke:#181818;stroke-width:0.5;" width="136.1621" x="276.0693" y="1311.2539"/><text fill="#000000" font-family="sans-serif" font-size="12" lengthAdjust="spacing" textLength="116.1621" x="286.0693" y="1332.3926">Wait for Next Cycle</text><polygon fill="#F1F1F1" points="344.1504,373.8125,356.1504,385.8125,344.1504,397.8125,332.1504,385.8125,344.1504,373.8125" style="stroke:#181818;stroke-width:0.5;"/><polygon fill="#F1F1F1" points="294.4382,1365.2227,393.8625,1365.2227,405.8625,1377.2227,393.8625,1389.2227,294.4382,1389.2227,282.4382,1377.2227,294.4382,1365.2227" style="stroke:#181818;stroke-width:0.5;"/><text fill="#000000" font-family="sans-serif" font-size="11" lengthAdjust="spacing" textLength="99.4243" x="294.4382" y="1381.0308">Campaign Active?</text><ellipse cx="344.1504" cy="1420.2227" fill="none" rx="11" ry="11" style="stroke:#222222;stroke-width:1;"/><ellipse cx="344.1504" cy="1420.2227" fill="#222222" rx="6" ry="6" style="stroke:#222222;stroke-width:1;"/><line style="stroke:#181818;stroke-width:1;" x1="344.1504" x2="344.1504" y1="30" y2="50"/><polygon fill="#181818" points="340.1504,40,344.1504,50,348.1504,40,344.1504,44" style="stroke:#181818;stroke-width:1;"/><line style="stroke:#181818;stroke-width:1;" x1="344.1504" x2="344.1504" y1="83.9688" y2="103.9688"/><polygon fill="#181818" points="340.1504,93.9688,344.1504,103.9688,348.1504,93.9688,344.1504,97.9688" style="stroke:#181818;stroke-width:1;"/><line style="stroke:#181818;stroke-width:1;" x1="344.1504" x2="344.1504" y1="137.9375" y2="157.9375"/><polygon fill="#181818" points="340.1504,147.9375,344.1504,157.9375,348.1504,147.9375,344.1504,151.9375" style="stroke:#181818;stroke-width:1;"/><line style="stroke:#181818;stroke-width:1;" x1="344.1504" x2="344.1504" y1="191.9063" y2="211.9063"/><polygon fill="#181818" points="340.1504,201.9063,344.1504,211.9063,348.1504,201.9063,344.1504,205.9063" style="stroke:#181818;stroke-width:1;"/><line style="stroke:#181818;stroke-width:1;" x1="344.1504" x2="344.1504" y1="245.875" y2="265.875"/><polygon fill="#181818" points="340.1504,255.875,344.1504,265.875,348.1504,255.875,344.1504,259.875" style="stroke:#181818;stroke-width:1;"/><line style="stroke:#181818;stroke-width:1;" x1="344.1504" x2="344.1504" y1="299.8438" y2="319.8438"/><polygon fill="#181818" points="340.1504,309.8438,344.1504,319.8438,348.1504,309.8438,344.1504,313.8438" style="stroke:#181818;stroke-width:1;"/><line style="stroke:#181818;stroke-width:1;" x1="92.0566" x2="92.0566" y1="477.7813" y2="497.7813"/><polygon fill="#181818" points="88.0566,487.7813,92.0566,497.7813,96.0566,487.7813,92.0566,491.7813" style="stroke:#181818;stroke-width:1;"/><line style="stroke:#181818;stroke-width:1;" x1="244.5938" x2="244.5938" y1="477.7813" y2="497.7813"/><polygon fill="#181818" points="240.5938,487.7813,244.5938,497.7813,248.5938,487.7813,244.5938,491.7813" style="stroke:#181818;stroke-width:1;"/><line style="stroke:#181818;stroke-width:1;" x1="413.083" x2="413.083" y1="477.7813" y2="497.7813"/><polygon fill="#181818" points="409.083,487.7813,413.083,497.7813,417.083,487.7813,413.083,491.7813" style="stroke:#181818;stroke-width:1;"/><line style="stroke:#181818;stroke-width:1;" x1="595.6963" x2="595.6963" y1="477.7813" y2="497.7813"/><polygon fill="#181818" points="591.6963,487.7813,595.6963,497.7813,599.6963,487.7813,595.6963,491.7813" style="stroke:#181818;stroke-width:1;"/><line style="stroke:#181818;stroke-width:1;" x1="92.0566" x2="92.0566" y1="531.75" y2="551.75"/><polygon fill="#181818" points="88.0566,541.75,92.0566,551.75,96.0566,541.75,92.0566,545.75" style="stroke:#181818;stroke-width:1;"/><line style="stroke:#181818;stroke-width:1;" x1="244.5938" x2="244.5938" y1="531.75" y2="551.75"/><polygon fill="#181818" points="240.5938,541.75,244.5938,551.75,248.5938,541.75,244.5938,545.75" style="stroke:#181818;stroke-width:1;"/><line style="stroke:#181818;stroke-width:1;" x1="413.083" x2="413.083" y1="531.75" y2="551.75"/><polygon fill="#181818" points="409.083,541.75,413.083,551.75,417.083,541.75,413.083,545.75" style="stroke:#181818;stroke-width:1;"/><line style="stroke:#181818;stroke-width:1;" x1="595.6963" x2="595.6963" y1="531.75" y2="551.75"/><polygon fill="#181818" points="591.6963,541.75,595.6963,551.75,599.6963,541.75,595.6963,545.75" style="stroke:#181818;stroke-width:1;"/><line style="stroke:#181818;stroke-width:1;" x1="344.1504" x2="344.1504" y1="451.7813" y2="471.7813"/><polygon fill="#181818" points="340.1504,461.7813,344.1504,471.7813,348.1504,461.7813,344.1504,465.7813" style="stroke:#181818;stroke-width:1;"/><line style="stroke:#181818;stroke-width:1;" x1="344.1504" x2="344.1504" y1="557.75" y2="577.75"/><polygon fill="#181818" points="340.1504,567.75,344.1504,577.75,348.1504,567.75,344.1504,571.75" style="stroke:#181818;stroke-width:1;"/><line style="stroke:#181818;stroke-width:1;" x1="344.1504" x2="344.1504" y1="611.7188" y2="631.7188"/><polygon fill="#181818" points="340.1504,621.7188,344.1504,631.7188,348.1504,621.7188,344.1504,625.7188" style="stroke:#181818;stroke-width:1;"/><line style="stroke:#181818;stroke-width:1;" x1="344.1504" x2="344.1504" y1="768.0586" y2="803.0586"/><polygon fill="#181818" points="340.1504,793.0586,344.1504,803.0586,348.1504,793.0586,344.1504,797.0586" style="stroke:#181818;stroke-width:1;"/><line style="stroke:#181818;stroke-width:1;" x1="344.1504" x2="344.1504" y1="709.6875" y2="734.0898"/><polygon fill="#181818" points="340.1504,724.0898,344.1504,734.0898,348.1504,724.0898,344.1504,728.0898" style="stroke:#181818;stroke-width:1;"/><line style="stroke:#181818;stroke-width:1;" x1="425.5637" x2="463.2734" y1="697.6875" y2="697.6875"/><polygon fill="#181818" points="459.2734,775.5586,463.2734,785.5586,467.2734,775.5586,463.2734,779.5586" style="stroke:#181818;stroke-width:1;"/><line style="stroke:#181818;stroke-width:1;" x1="463.2734" x2="463.2734" y1="697.6875" y2="869.0273"/><line style="stroke:#181818;stroke-width:1;" x1="463.2734" x2="356.1504" y1="869.0273" y2="869.0273"/><polygon fill="#181818" points="366.1504,865.0273,356.1504,869.0273,366.1504,873.0273,362.1504,869.0273" style="stroke:#181818;stroke-width:1;"/><line style="stroke:#181818;stroke-width:1;" x1="344.1504" x2="344.1504" y1="837.0273" y2="857.0273"/><polygon fill="#181818" points="340.1504,847.0273,344.1504,857.0273,348.1504,847.0273,344.1504,851.0273" style="stroke:#181818;stroke-width:1;"/><line style="stroke:#181818;stroke-width:1;" x1="344.1504" x2="344.1504" y1="665.6875" y2="685.6875"/><polygon fill="#181818" points="340.1504,675.6875,344.1504,685.6875,348.1504,675.6875,344.1504,679.6875" style="stroke:#181818;stroke-width:1;"/><line style="stroke:#181818;stroke-width:1;" x1="344.1504" x2="344.1504" y1="998.3984" y2="1026.9141"/><polygon fill="#181818" points="340.1504,1016.9141,344.1504,1026.9141,348.1504,1016.9141,344.1504,1020.9141" style="stroke:#181818;stroke-width:1;"/><line style="stroke:#181818;stroke-width:1;" x1="344.1504" x2="344.1504" y1="940.0273" y2="964.4297"/><polygon fill="#181818" points="340.1504,954.4297,344.1504,964.4297,348.1504,954.4297,344.1504,958.4297" style="stroke:#181818;stroke-width:1;"/><line style="stroke:#181818;stroke-width:1;" x1="411.6016" x2="707.7578" y1="928.0273" y2="928.0273"/><polygon fill="#181818" points="703.7578,996.9141,707.7578,1006.9141,711.7578,996.9141,707.7578,1000.9141" style="stroke:#181818;stroke-width:1;"/><line style="stroke:#181818;stroke-width:1;" x1="707.7578" x2="707.7578" y1="928.0273" y2="1070.9141"/><line style="stroke:#181818;stroke-width:1;" x1="707.7578" x2="344.1504" y1="1070.9141" y2="1070.9141"/><line style="stroke:#181818;stroke-width:1;" x1="344.1504" x2="344.1504" y1="1070.9141" y2="1090.9141"/><polygon fill="#181818" points="340.1504,1080.9141,344.1504,1090.9141,348.1504,1080.9141,344.1504,1084.9141" style="stroke:#181818;stroke-width:1;"/><line style="stroke:#181818;stroke-width:1;" x1="344.1504" x2="344.1504" y1="881.0273" y2="916.0273"/><polygon fill="#181818" points="340.1504,906.0273,344.1504,916.0273,348.1504,906.0273,344.1504,910.0273" style="stroke:#181818;stroke-width:1;"/><line style="stroke:#181818;stroke-width:1;" x1="344.1504" x2="344.1504" y1="1173.2852" y2="1193.2852"/><polygon fill="#181818" points="340.1504,1183.2852,344.1504,1193.2852,348.1504,1183.2852,344.1504,1187.2852" style="stroke:#181818;stroke-width:1;"/><line style="stroke:#181818;stroke-width:1;" x1="344.1504" x2="344.1504" y1="1227.2539" y2="1247.2539"/><polygon fill="#181818" points="340.1504,1237.2539,344.1504,1247.2539,348.1504,1237.2539,344.1504,1241.2539" style="stroke:#181818;stroke-width:1;"/><line style="stroke:#181818;stroke-width:1;" x1="344.1504" x2="344.1504" y1="1114.9141" y2="1139.3164"/><polygon fill="#181818" points="340.1504,1129.3164,344.1504,1139.3164,348.1504,1129.3164,344.1504,1133.3164" style="stroke:#181818;stroke-width:1;"/><line style="stroke:#181818;stroke-width:1;" x1="401.5227" x2="430.4111" y1="1102.9141" y2="1102.9141"/><polygon fill="#181818" points="426.4111,1191.2852,430.4111,1201.2852,434.4111,1191.2852,430.4111,1195.2852" style="stroke:#181818;stroke-width:1;"/><line style="stroke:#181818;stroke-width:1;" x1="430.4111" x2="430.4111" y1="1102.9141" y2="1291.2539"/><line style="stroke:#181818;stroke-width:1;" x1="430.4111" x2="344.1504" y1="1291.2539" y2="1291.2539"/><line style="stroke:#181818;stroke-width:1;" x1="344.1504" x2="344.1504" y1="1291.2539" y2="1311.2539"/><polygon fill="#181818" points="340.1504,1301.2539,344.1504,1311.2539,348.1504,1301.2539,344.1504,1305.2539" style="stroke:#181818;stroke-width:1;"/><line style="stroke:#181818;stroke-width:1;" x1="344.1504" x2="344.1504" y1="397.8125" y2="417.8125"/><polygon fill="#181818" points="340.1504,407.8125,344.1504,417.8125,348.1504,407.8125,344.1504,411.8125" style="stroke:#181818;stroke-width:1;"/><line style="stroke:#181818;stroke-width:1;" x1="405.8625" x2="725.7578" y1="1377.2227" y2="1377.2227"/><polygon fill="#181818" points="721.7578,900.9609,725.7578,890.9609,729.7578,900.9609,725.7578,896.9609" style="stroke:#181818;stroke-width:1;"/><line style="stroke:#181818;stroke-width:1;" x1="725.7578" x2="725.7578" y1="385.8125" y2="1377.2227"/><line style="stroke:#181818;stroke-width:1;" x1="725.7578" x2="356.1504" y1="385.8125" y2="385.8125"/><polygon fill="#181818" points="366.1504,381.8125,356.1504,385.8125,366.1504,389.8125,362.1504,385.8125" style="stroke:#181818;stroke-width:1;"/><line style="stroke:#181818;stroke-width:1;" x1="344.1504" x2="344.1504" y1="1345.2227" y2="1365.2227"/><polygon fill="#181818" points="340.1504,1355.2227,344.1504,1365.2227,348.1504,1355.2227,344.1504,1359.2227" style="stroke:#181818;stroke-width:1;"/><line style="stroke:#181818;stroke-width:1;" x1="344.1504" x2="344.1504" y1="353.8125" y2="373.8125"/><polygon fill="#181818" points="340.1504,363.8125,344.1504,373.8125,348.1504,363.8125,344.1504,367.8125" style="stroke:#181818;stroke-width:1;"/><line style="stroke:#181818;stroke-width:1;" x1="344.1504" x2="344.1504" y1="1389.2227" y2="1409.2227"/><polygon fill="#181818" points="340.1504,1399.2227,344.1504,1409.2227,348.1504,1399.2227,344.1504,1403.2227" style="stroke:#181818;stroke-width:1;"/><!--SRC=[XLBBRjim4BphA_PKs420tAL3eCYkqOEBechHCqkEfAqfKg2e9EhNToa_OgC90WWWe9sTcPtTCQeGixmAK15KgNvGtBeYopTes85AhQT-iYgoTxJpoevIgs6X8tsYohk6soc0wXY4e6MaUccjrudlSJ8jOf59IzAvvl_YEBAo_FVIEzFUoqyVsBNI4Z28fumeBvsoi-3sAXmGawZXv4UaYEHhV3Z88yZj2_GakdMVr3PLMPpAf5h5xXQq2speHr1cqNiVLtV-Ox97g70sU8B2cRErDCNFmLn7JD-2RmF6POYywg0FIxwIUCTuGWyNJ_DnGwjBHlKpHztHLy30FAmfTd2qcZ6kZuPAysSQuskcfrr8NCKHS2Iutphrs-9-msDwR_QtMEVcMjmFhx7J7l4DuKjS2Ip3QHWvZAEeyr88t7OnfssFqCBf-Kuse3IQoTwH3rJhJZeipD8n2il_HfO3F2VqrlILxmUBcqjU_k_Wa0Qapop7HDyno4wBTvJoNufZMfsa_2BtDcihSnplaPuxbhXMbpMMEl8J7jPPbeZ-0G00]--></g></svg>