<svg xmlns="http://www.w3.org/2000/svg" xmlns:xlink="http://www.w3.org/1999/xlink" contentStyleType="text/css" data-diagram-type="DESCRIPTION" height="658px" preserveAspectRatio="none" style="width:1865px;height:658px;background:#FFFFFF;" version="1.1" viewBox="0 0 1865 658" width="1865px" zoomAndPan="magnify"><defs/><g><!--cluster Campaign Trading System--><g class="cluster" data-entity="Campaign Trading System" data-source-line="1" data-uid="ent0002" id="cluster_Campaign Trading System"><path d="M1079.5,6 L1287.8408,6 A3.75,3.75 0 0 1 1290.3408,8.5 L1297.3408,28.2969 L1622.5,28.2969 A2.5,2.5 0 0 1 1625,30.7969 L1625,648.58 A2.5,2.5 0 0 1 1622.5,651.08 L1079.5,651.08 A2.5,2.5 0 0 1 1077,648.58 L1077,8.5 A2.5,2.5 0 0 1 1079.5,6" fill="none" style="stroke:#000000;stroke-width:1.5;"/><line style="stroke:#000000;stroke-width:1.5;" x1="1077" x2="1297.3408" y1="28.2969" y2="28.2969"/><text fill="#000000" font-family="sans-serif" font-size="14" font-weight="bold" lengthAdjust="spacing" textLength="207.3408" x="1081" y="20.9951">Campaign Trading System</text></g><!--cluster MySQL Tables--><g class="cluster" data-entity="MySQL Tables" data-source-line="36" data-uid="ent0029" id="cluster_MySQL Tables"><path d="M8.5,6 L119.9824,6 A3.75,3.75 0 0 1 122.4824,8.5 L129.4824,28.2969 L669.5,28.2969 A2.5,2.5 0 0 1 672,30.7969 L672,313.39 A2.5,2.5 0 0 1 669.5,315.89 L8.5,315.89 A2.5,2.5 0 0 1 6,313.39 L6,8.5 A2.5,2.5 0 0 1 8.5,6" fill="none" style="stroke:#000000;stroke-width:1.5;"/><line style="stroke:#000000;stroke-width:1.5;" x1="6" x2="129.4824" y1="28.2969" y2="28.2969"/><text fill="#000000" font-family="sans-serif" font-size="14" font-weight="bold" lengthAdjust="spacing" textLength="110.4824" x="10" y="20.9951">MySQL Tables</text></g><!--cluster Redis Data--><g class="cluster" data-entity="Redis Data" data-source-line="55" data-uid="ent0043" id="cluster_Redis Data"><path d="M698.5,6 L785.0107,6 A3.75,3.75 0 0 1 787.5107,8.5 L794.5107,28.2969 L1050.5,28.2969 A2.5,2.5 0 0 1 1053,30.7969 L1053,207.1 A2.5,2.5 0 0 1 1050.5,209.6 L698.5,209.6 A2.5,2.5 0 0 1 696,207.1 L696,8.5 A2.5,2.5 0 0 1 698.5,6" fill="none" style="stroke:#000000;stroke-width:1.5;"/><line style="stroke:#000000;stroke-width:1.5;" x1="696" x2="794.5107" y1="28.2969" y2="28.2969"/><text fill="#000000" font-family="sans-serif" font-size="14" font-weight="bold" lengthAdjust="spacing" textLength="85.5107" x="700" y="20.9951">Redis Data</text></g><!--entity API Server--><g class="entity" data-entity="API Server" data-source-line="2" data-uid="ent0003" id="entity_API Server"><rect fill="#F1F1F1" height="46.2969" rx="2.5" ry="2.5" style="stroke:#181818;stroke-width:0.5;" width="112.5088" x="1133.75" y="41"/><rect fill="#F1F1F1" height="10" style="stroke:#181818;stroke-width:0.5;" width="15" x="1226.2588" y="46"/><rect fill="#F1F1F1" height="2" style="stroke:#181818;stroke-width:0.5;" width="4" x="1224.2588" y="48"/><rect fill="#F1F1F1" height="2" style="stroke:#181818;stroke-width:0.5;" width="4" x="1224.2588" y="52"/><text fill="#000000" font-family="sans-serif" font-size="14" lengthAdjust="spacing" textLength="72.5088" x="1148.75" y="73.9951">API Server</text></g><!--entity Campaign Manager--><g class="entity" data-entity="Campaign Manager" data-source-line="3" data-uid="ent0004" id="entity_Campaign Manager"><rect fill="#F1F1F1" height="46.2969" rx="2.5" ry="2.5" style="stroke:#181818;stroke-width:0.5;" width="176.9238" x="1423.54" y="147.3"/><rect fill="#F1F1F1" height="10" style="stroke:#181818;stroke-width:0.5;" width="15" x="1580.4638" y="152.3"/><rect fill="#F1F1F1" height="2" style="stroke:#181818;stroke-width:0.5;" width="4" x="1578.4638" y="154.3"/><rect fill="#F1F1F1" height="2" style="stroke:#181818;stroke-width:0.5;" width="4" x="1578.4638" y="158.3"/><text fill="#000000" font-family="sans-serif" font-size="14" lengthAdjust="spacing" textLength="136.9238" x="1438.54" y="180.2951">Campaign Manager</text></g><!--entity Strategy Orchestrator--><g class="entity" data-entity="Strategy Orchestrator" data-source-line="4" data-uid="ent0005" id="entity_Strategy Orchestrator"><rect fill="#F1F1F1" height="46.2969" rx="2.5" ry="2.5" style="stroke:#181818;stroke-width:0.5;" width="193.3232" x="1415.34" y="253.6"/><rect fill="#F1F1F1" height="10" style="stroke:#181818;stroke-width:0.5;" width="15" x="1588.6632" y="258.6"/><rect fill="#F1F1F1" height="2" style="stroke:#181818;stroke-width:0.5;" width="4" x="1586.6632" y="260.6"/><rect fill="#F1F1F1" height="2" style="stroke:#181818;stroke-width:0.5;" width="4" x="1586.6632" y="264.6"/><text fill="#000000" font-family="sans-serif" font-size="14" lengthAdjust="spacing" textLength="153.3232" x="1430.34" y="286.5951">Strategy Orchestrator</text></g><!--entity Position Manager--><g class="entity" data-entity="Position Manager" data-source-line="5" data-uid="ent0006" id="entity_Position Manager"><rect fill="#F1F1F1" height="46.2969" rx="2.5" ry="2.5" style="stroke:#181818;stroke-width:0.5;" width="160.8252" x="1259.59" y="359.89"/><rect fill="#F1F1F1" height="10" style="stroke:#181818;stroke-width:0.5;" width="15" x="1400.4152" y="364.89"/><rect fill="#F1F1F1" height="2" style="stroke:#181818;stroke-width:0.5;" width="4" x="1398.4152" y="366.89"/><rect fill="#F1F1F1" height="2" style="stroke:#181818;stroke-width:0.5;" width="4" x="1398.4152" y="370.89"/><text fill="#000000" font-family="sans-serif" font-size="14" lengthAdjust="spacing" textLength="120.8252" x="1274.59" y="392.8851">Position Manager</text></g><!--entity Grid Engine--><g class="entity" data-entity="Grid Engine" data-source-line="6" data-uid="ent0007" id="entity_Grid Engine"><rect fill="#F1F1F1" height="46.2969" rx="2.5" ry="2.5" style="stroke:#181818;stroke-width:0.5;" width="121.8125" x="1250.09" y="474.34"/><rect fill="#F1F1F1" height="10" style="stroke:#181818;stroke-width:0.5;" width="15" x="1351.9025" y="479.34"/><rect fill="#F1F1F1" height="2" style="stroke:#181818;stroke-width:0.5;" width="4" x="1349.9025" y="481.34"/><rect fill="#F1F1F1" height="2" style="stroke:#181818;stroke-width:0.5;" width="4" x="1349.9025" y="485.34"/><text fill="#000000" font-family="sans-serif" font-size="14" lengthAdjust="spacing" textLength="81.8125" x="1265.09" y="507.3351">Grid Engine</text></g><!--entity Short Position Manager--><g class="entity" data-entity="Short Position Manager" data-source-line="7" data-uid="ent0008" id="entity_Short Position Manager"><rect fill="#F1F1F1" height="46.2969" rx="2.5" ry="2.5" style="stroke:#181818;stroke-width:0.5;" width="202.8457" x="1406.58" y="474.34"/><rect fill="#F1F1F1" height="10" style="stroke:#181818;stroke-width:0.5;" width="15" x="1589.4257" y="479.34"/><rect fill="#F1F1F1" height="2" style="stroke:#181818;stroke-width:0.5;" width="4" x="1587.4257" y="481.34"/><rect fill="#F1F1F1" height="2" style="stroke:#181818;stroke-width:0.5;" width="4" x="1587.4257" y="485.34"/><text fill="#000000" font-family="sans-serif" font-size="14" lengthAdjust="spacing" textLength="162.8457" x="1421.58" y="507.3351">Short Position Manager</text></g><!--entity DCA Engine--><g class="entity" data-entity="DCA Engine" data-source-line="8" data-uid="ent0009" id="entity_DCA Engine"><rect fill="#F1F1F1" height="46.2969" rx="2.5" ry="2.5" style="stroke:#181818;stroke-width:0.5;" width="122.5645" x="1092.72" y="474.34"/><rect fill="#F1F1F1" height="10" style="stroke:#181818;stroke-width:0.5;" width="15" x="1195.2845" y="479.34"/><rect fill="#F1F1F1" height="2" style="stroke:#181818;stroke-width:0.5;" width="4" x="1193.2845" y="481.34"/><rect fill="#F1F1F1" height="2" style="stroke:#181818;stroke-width:0.5;" width="4" x="1193.2845" y="485.34"/><text fill="#000000" font-family="sans-serif" font-size="14" lengthAdjust="spacing" textLength="82.5645" x="1107.72" y="507.3351">DCA Engine</text></g><!--entity Market Analyzer--><g class="entity" data-entity="Market Analyzer" data-source-line="9" data-uid="ent0010" id="entity_Market Analyzer"><rect fill="#F1F1F1" height="46.2969" rx="2.5" ry="2.5" style="stroke:#181818;stroke-width:0.5;" width="153.9961" x="1455" y="359.89"/><rect fill="#F1F1F1" height="10" style="stroke:#181818;stroke-width:0.5;" width="15" x="1588.9961" y="364.89"/><rect fill="#F1F1F1" height="2" style="stroke:#181818;stroke-width:0.5;" width="4" x="1586.9961" y="366.89"/><rect fill="#F1F1F1" height="2" style="stroke:#181818;stroke-width:0.5;" width="4" x="1586.9961" y="370.89"/><text fill="#000000" font-family="sans-serif" font-size="14" lengthAdjust="spacing" textLength="113.9961" x="1470" y="392.8851">Market Analyzer</text></g><!--entity Risk Manager--><g class="entity" data-entity="Risk Manager" data-source-line="10" data-uid="ent0011" id="entity_Risk Manager"><rect fill="#F1F1F1" height="46.2969" rx="2.5" ry="2.5" style="stroke:#181818;stroke-width:0.5;" width="134.835" x="1245.58" y="253.6"/><rect fill="#F1F1F1" height="10" style="stroke:#181818;stroke-width:0.5;" width="15" x="1360.415" y="258.6"/><rect fill="#F1F1F1" height="2" style="stroke:#181818;stroke-width:0.5;" width="4" x="1358.415" y="260.6"/><rect fill="#F1F1F1" height="2" style="stroke:#181818;stroke-width:0.5;" width="4" x="1358.415" y="264.6"/><text fill="#000000" font-family="sans-serif" font-size="14" lengthAdjust="spacing" textLength="94.835" x="1260.58" y="286.5951">Risk Manager</text></g><!--entity Stop Controller--><g class="entity" data-entity="Stop Controller" data-source-line="11" data-uid="ent0012" id="entity_Stop Controller"><rect fill="#F1F1F1" height="46.2969" rx="2.5" ry="2.5" style="stroke:#181818;stroke-width:0.5;" width="145.4512" x="1281.27" y="41"/><rect fill="#F1F1F1" height="10" style="stroke:#181818;stroke-width:0.5;" width="15" x="1406.7212" y="46"/><rect fill="#F1F1F1" height="2" style="stroke:#181818;stroke-width:0.5;" width="4" x="1404.7212" y="48"/><rect fill="#F1F1F1" height="2" style="stroke:#181818;stroke-width:0.5;" width="4" x="1404.7212" y="52"/><text fill="#000000" font-family="sans-serif" font-size="14" lengthAdjust="spacing" textLength="105.4512" x="1296.27" y="73.9951">Stop Controller</text></g><!--entity State Recovery--><g class="entity" data-entity="State Recovery" data-source-line="12" data-uid="ent0013" id="entity_State Recovery"><rect fill="#F1F1F1" height="46.2969" rx="2.5" ry="2.5" style="stroke:#181818;stroke-width:0.5;" width="147.0508" x="1461.47" y="41"/><rect fill="#F1F1F1" height="10" style="stroke:#181818;stroke-width:0.5;" width="15" x="1588.5208" y="46"/><rect fill="#F1F1F1" height="2" style="stroke:#181818;stroke-width:0.5;" width="4" x="1586.5208" y="48"/><rect fill="#F1F1F1" height="2" style="stroke:#181818;stroke-width:0.5;" width="4" x="1586.5208" y="52"/><text fill="#000000" font-family="sans-serif" font-size="14" lengthAdjust="spacing" textLength="107.0508" x="1476.47" y="73.9951">State Recovery</text></g><!--entity Exchange Connector--><g class="entity" data-entity="Exchange Connector" data-source-line="13" data-uid="ent0014" id="entity_Exchange Connector"><rect fill="#F1F1F1" height="46.2969" rx="2.5" ry="2.5" style="stroke:#181818;stroke-width:0.5;" width="185.3115" x="1218.34" y="588.78"/><rect fill="#F1F1F1" height="10" style="stroke:#181818;stroke-width:0.5;" width="15" x="1383.6515" y="593.78"/><rect fill="#F1F1F1" height="2" style="stroke:#181818;stroke-width:0.5;" width="4" x="1381.6515" y="595.78"/><rect fill="#F1F1F1" height="2" style="stroke:#181818;stroke-width:0.5;" width="4" x="1381.6515" y="599.78"/><text fill="#000000" font-family="sans-serif" font-size="14" lengthAdjust="spacing" textLength="145.3115" x="1233.34" y="621.7751">Exchange Connector</text></g><!--entity accumulation_campaigns--><g class="entity" data-entity="accumulation_campaigns" data-source-line="37" data-uid="ent0030" id="entity_accumulation_campaigns"><rect fill="#F1F1F1" height="46.2969" rx="2.5" ry="2.5" style="stroke:#181818;stroke-width:0.5;" width="217.9668" x="22.02" y="41"/><rect fill="#F1F1F1" height="10" style="stroke:#181818;stroke-width:0.5;" width="15" x="219.9868" y="46"/><rect fill="#F1F1F1" height="2" style="stroke:#181818;stroke-width:0.5;" width="4" x="217.9868" y="48"/><rect fill="#F1F1F1" height="2" style="stroke:#181818;stroke-width:0.5;" width="4" x="217.9868" y="52"/><text fill="#000000" font-family="sans-serif" font-size="14" lengthAdjust="spacing" textLength="177.9668" x="37.02" y="73.9951">accumulation_campaigns</text></g><!--entity campaign_strategies--><g class="entity" data-entity="campaign_strategies" data-source-line="38" data-uid="ent0031" id="entity_campaign_strategies"><rect fill="#F1F1F1" height="46.2969" rx="2.5" ry="2.5" style="stroke:#181818;stroke-width:0.5;" width="185.9336" x="275.03" y="41"/><rect fill="#F1F1F1" height="10" style="stroke:#181818;stroke-width:0.5;" width="15" x="440.9636" y="46"/><rect fill="#F1F1F1" height="2" style="stroke:#181818;stroke-width:0.5;" width="4" x="438.9636" y="48"/><rect fill="#F1F1F1" height="2" style="stroke:#181818;stroke-width:0.5;" width="4" x="438.9636" y="52"/><text fill="#000000" font-family="sans-serif" font-size="14" lengthAdjust="spacing" textLength="145.9336" x="290.03" y="73.9951">campaign_strategies</text></g><!--entity trading_positions--><g class="entity" data-entity="trading_positions" data-source-line="39" data-uid="ent0032" id="entity_trading_positions"><rect fill="#F1F1F1" height="46.2969" rx="2.5" ry="2.5" style="stroke:#181818;stroke-width:0.5;" width="160.1074" x="495.95" y="41"/><rect fill="#F1F1F1" height="10" style="stroke:#181818;stroke-width:0.5;" width="15" x="636.0574" y="46"/><rect fill="#F1F1F1" height="2" style="stroke:#181818;stroke-width:0.5;" width="4" x="634.0574" y="48"/><rect fill="#F1F1F1" height="2" style="stroke:#181818;stroke-width:0.5;" width="4" x="634.0574" y="52"/><text fill="#000000" font-family="sans-serif" font-size="14" lengthAdjust="spacing" textLength="120.1074" x="510.95" y="73.9951">trading_positions</text></g><!--entity grid_levels--><g class="entity" data-entity="grid_levels" data-source-line="40" data-uid="ent0033" id="entity_grid_levels"><rect fill="#F1F1F1" height="46.2969" rx="2.5" ry="2.5" style="stroke:#181818;stroke-width:0.5;" width="115.0039" x="73.5" y="147.3"/><rect fill="#F1F1F1" height="10" style="stroke:#181818;stroke-width:0.5;" width="15" x="168.5039" y="152.3"/><rect fill="#F1F1F1" height="2" style="stroke:#181818;stroke-width:0.5;" width="4" x="166.5039" y="154.3"/><rect fill="#F1F1F1" height="2" style="stroke:#181818;stroke-width:0.5;" width="4" x="166.5039" y="158.3"/><text fill="#000000" font-family="sans-serif" font-size="14" lengthAdjust="spacing" textLength="75.0039" x="88.5" y="180.2951">grid_levels</text></g><!--entity dca_levels--><g class="entity" data-entity="dca_levels" data-source-line="41" data-uid="ent0034" id="entity_dca_levels"><rect fill="#F1F1F1" height="46.2969" rx="2.5" ry="2.5" style="stroke:#181818;stroke-width:0.5;" width="112.748" x="223.63" y="147.3"/><rect fill="#F1F1F1" height="10" style="stroke:#181818;stroke-width:0.5;" width="15" x="316.378" y="152.3"/><rect fill="#F1F1F1" height="2" style="stroke:#181818;stroke-width:0.5;" width="4" x="314.378" y="154.3"/><rect fill="#F1F1F1" height="2" style="stroke:#181818;stroke-width:0.5;" width="4" x="314.378" y="158.3"/><text fill="#000000" font-family="sans-serif" font-size="14" lengthAdjust="spacing" textLength="72.748" x="238.63" y="180.2951">dca_levels</text></g><!--entity take_profit_levels--><g class="entity" data-entity="take_profit_levels" data-source-line="42" data-uid="ent0035" id="entity_take_profit_levels"><rect fill="#F1F1F1" height="46.2969" rx="2.5" ry="2.5" style="stroke:#181818;stroke-width:0.5;" width="162.8896" x="371.56" y="147.3"/><rect fill="#F1F1F1" height="10" style="stroke:#181818;stroke-width:0.5;" width="15" x="514.4496" y="152.3"/><rect fill="#F1F1F1" height="2" style="stroke:#181818;stroke-width:0.5;" width="4" x="512.4496" y="154.3"/><rect fill="#F1F1F1" height="2" style="stroke:#181818;stroke-width:0.5;" width="4" x="512.4496" y="158.3"/><text fill="#000000" font-family="sans-serif" font-size="14" lengthAdjust="spacing" textLength="122.8896" x="386.56" y="180.2951">take_profit_levels</text></g><!--entity trading_strategies--><g class="entity" data-entity="trading_strategies" data-source-line="43" data-uid="ent0036" id="entity_trading_strategies"><rect fill="#F1F1F1" height="46.2969" rx="2.5" ry="2.5" style="stroke:#181818;stroke-width:0.5;" width="167.2646" x="47.37" y="253.6"/><rect fill="#F1F1F1" height="10" style="stroke:#181818;stroke-width:0.5;" width="15" x="194.6346" y="258.6"/><rect fill="#F1F1F1" height="2" style="stroke:#181818;stroke-width:0.5;" width="4" x="192.6346" y="260.6"/><rect fill="#F1F1F1" height="2" style="stroke:#181818;stroke-width:0.5;" width="4" x="192.6346" y="264.6"/><text fill="#000000" font-family="sans-serif" font-size="14" lengthAdjust="spacing" textLength="127.2646" x="62.37" y="286.5951">trading_strategies</text></g><!--entity stop_controls--><g class="entity" data-entity="stop_controls" data-source-line="44" data-uid="ent0037" id="entity_stop_controls"><rect fill="#F1F1F1" height="46.2969" rx="2.5" ry="2.5" style="stroke:#181818;stroke-width:0.5;" width="133.3652" x="249.32" y="253.6"/><rect fill="#F1F1F1" height="10" style="stroke:#181818;stroke-width:0.5;" width="15" x="362.6852" y="258.6"/><rect fill="#F1F1F1" height="2" style="stroke:#181818;stroke-width:0.5;" width="4" x="360.6852" y="260.6"/><rect fill="#F1F1F1" height="2" style="stroke:#181818;stroke-width:0.5;" width="4" x="360.6852" y="264.6"/><text fill="#000000" font-family="sans-serif" font-size="14" lengthAdjust="spacing" textLength="93.3652" x="264.32" y="286.5951">stop_controls</text></g><!--entity market_data--><g class="entity" data-entity="market_data" data-source-line="56" data-uid="ent0044" id="entity_market_data"><rect fill="#F1F1F1" height="46.2969" rx="2.5" ry="2.5" style="stroke:#181818;stroke-width:0.5;" width="128.7168" x="714.64" y="41"/><rect fill="#F1F1F1" height="10" style="stroke:#181818;stroke-width:0.5;" width="15" x="823.3568" y="46"/><rect fill="#F1F1F1" height="2" style="stroke:#181818;stroke-width:0.5;" width="4" x="821.3568" y="48"/><rect fill="#F1F1F1" height="2" style="stroke:#181818;stroke-width:0.5;" width="4" x="821.3568" y="52"/><text fill="#000000" font-family="sans-serif" font-size="14" lengthAdjust="spacing" textLength="88.7168" x="729.64" y="73.9951">market_data</text></g><!--entity campaign_states--><g class="entity" data-entity="campaign_states" data-source-line="57" data-uid="ent0045" id="entity_campaign_states"><rect fill="#F1F1F1" height="46.2969" rx="2.5" ry="2.5" style="stroke:#181818;stroke-width:0.5;" width="158.7881" x="878.61" y="41"/><rect fill="#F1F1F1" height="10" style="stroke:#181818;stroke-width:0.5;" width="15" x="1017.3981" y="46"/><rect fill="#F1F1F1" height="2" style="stroke:#181818;stroke-width:0.5;" width="4" x="1015.3981" y="48"/><rect fill="#F1F1F1" height="2" style="stroke:#181818;stroke-width:0.5;" width="4" x="1015.3981" y="52"/><text fill="#000000" font-family="sans-serif" font-size="14" lengthAdjust="spacing" textLength="118.7881" x="893.61" y="73.9951">campaign_states</text></g><!--entity position_cache--><g class="entity" data-entity="position_cache" data-source-line="58" data-uid="ent0046" id="entity_position_cache"><rect fill="#F1F1F1" height="46.2969" rx="2.5" ry="2.5" style="stroke:#181818;stroke-width:0.5;" width="143.9131" x="712.04" y="147.3"/><rect fill="#F1F1F1" height="10" style="stroke:#181818;stroke-width:0.5;" width="15" x="835.9531" y="152.3"/><rect fill="#F1F1F1" height="2" style="stroke:#181818;stroke-width:0.5;" width="4" x="833.9531" y="154.3"/><rect fill="#F1F1F1" height="2" style="stroke:#181818;stroke-width:0.5;" width="4" x="833.9531" y="158.3"/><text fill="#000000" font-family="sans-serif" font-size="14" lengthAdjust="spacing" textLength="103.9131" x="727.04" y="180.2951">position_cache</text></g><!--entity strategy_cache--><g class="entity" data-entity="strategy_cache" data-source-line="59" data-uid="ent0047" id="entity_strategy_cache"><rect fill="#F1F1F1" height="46.2969" rx="2.5" ry="2.5" style="stroke:#181818;stroke-width:0.5;" width="146.8525" x="890.57" y="147.3"/><rect fill="#F1F1F1" height="10" style="stroke:#181818;stroke-width:0.5;" width="15" x="1017.4225" y="152.3"/><rect fill="#F1F1F1" height="2" style="stroke:#181818;stroke-width:0.5;" width="4" x="1015.4225" y="154.3"/><rect fill="#F1F1F1" height="2" style="stroke:#181818;stroke-width:0.5;" width="4" x="1015.4225" y="158.3"/><text fill="#000000" font-family="sans-serif" font-size="14" lengthAdjust="spacing" textLength="106.8525" x="905.57" y="180.2951">strategy_cache</text></g><!--entity DB--><g class="entity" data-entity="DB" data-source-line="34" data-uid="ent0028" id="entity_DB"><path d="M1779.96,484.84 C1779.96,474.84 1813.9952,474.84 1813.9952,474.84 C1813.9952,474.84 1848.0303,474.84 1848.0303,484.84 L1848.0303,510.1369 C1848.0303,520.1369 1813.9952,520.1369 1813.9952,520.1369 C1813.9952,520.1369 1779.96,520.1369 1779.96,510.1369 L1779.96,484.84" fill="#F1F1F1" style="stroke:#181818;stroke-width:0.5;"/><path d="M1779.96,484.84 C1779.96,494.84 1813.9952,494.84 1813.9952,494.84 C1813.9952,494.84 1848.0303,494.84 1848.0303,484.84" fill="none" style="stroke:#181818;stroke-width:0.5;"/><text fill="#000000" font-family="sans-serif" font-size="14" lengthAdjust="spacing" textLength="48.0703" x="1789.96" y="511.8351">MySQL</text></g><!--entity Cache--><g class="entity" data-entity="Cache" data-source-line="53" data-uid="ent0042" id="entity_Cache"><polygon fill="#F1F1F1" points="1644.7,476.19,1654.7,466.19,1745.2908,466.19,1745.2908,518.7838,1735.2908,528.7838,1644.7,528.7838,1644.7,476.19" style="stroke:#181818;stroke-width:0.5;"/><line style="stroke:#181818;stroke-width:0.5;" x1="1735.2908" x2="1745.2908" y1="476.19" y2="466.19"/><line style="stroke:#181818;stroke-width:0.5;" x1="1644.7" x2="1735.2908" y1="476.19" y2="476.19"/><line style="stroke:#181818;stroke-width:0.5;" x1="1735.2908" x2="1735.2908" y1="476.19" y2="528.7838"/><text fill="#000000" font-family="sans-serif" font-size="14" font-style="italic" lengthAdjust="spacing" textLength="58.5908" x="1660.7" y="499.1851">&#171;cache&#187;</text><text fill="#000000" font-family="sans-serif" font-size="14" lengthAdjust="spacing" textLength="38.4111" x="1670.7898" y="515.482">Redis</text></g><!--link API Server to Campaign Manager--><g class="link" data-entity-1="API Server" data-entity-2="Campaign Manager" data-source-line="16" data-uid="lnk15" id="link_API Server_Campaign Manager"><path d="M1246.46,83.44 C1300.93,101.08 1377.822,125.9809 1436.412,144.9609" fill="none" id="API Server-to-Campaign Manager" style="stroke:#181818;stroke-width:1;"/><polygon fill="#181818" points="1442.12,146.81,1434.7908,140.2311,1437.3634,145.2691,1432.3253,147.8417,1442.12,146.81" style="stroke:#181818;stroke-width:1;"/></g><!--link Campaign Manager to Strategy Orchestrator--><g class="link" data-entity-1="Campaign Manager" data-entity-2="Strategy Orchestrator" data-source-line="17" data-uid="lnk16" id="link_Campaign Manager_Strategy Orchestrator"><path d="M1512,194.08 C1512,211.57 1512,229.67 1512,247.16" fill="none" id="Campaign Manager-to-Strategy Orchestrator" style="stroke:#181818;stroke-width:1;"/><polygon fill="#181818" points="1512,253.16,1516,244.16,1512,248.16,1508,244.16,1512,253.16" style="stroke:#181818;stroke-width:1;"/></g><!--link Strategy Orchestrator to Position Manager--><g class="link" data-entity-1="Strategy Orchestrator" data-entity-2="Position Manager" data-source-line="18" data-uid="lnk17" id="link_Strategy Orchestrator_Position Manager"><path d="M1474.68,300.37 C1445.83,317.87 1411.2106,338.8592 1382.3806,356.3392" fill="none" id="Strategy Orchestrator-to-Position Manager" style="stroke:#181818;stroke-width:1;"/><polygon fill="#181818" points="1377.25,359.45,1387.0198,358.2043,1381.5255,356.8577,1382.8721,351.3635,1377.25,359.45" style="stroke:#181818;stroke-width:1;"/></g><!--link Strategy Orchestrator to Market Analyzer--><g class="link" data-entity-1="Strategy Orchestrator" data-entity-2="Market Analyzer" data-source-line="19" data-uid="lnk18" id="link_Strategy Orchestrator_Market Analyzer"><path d="M1516.34,300.37 C1519.69,317.87 1523.1907,336.0772 1526.5407,353.5572" fill="none" id="Strategy Orchestrator-to-Market Analyzer" style="stroke:#181818;stroke-width:1;"/><polygon fill="#181818" points="1527.67,359.45,1529.9045,349.858,1526.7289,354.5394,1522.0475,351.3638,1527.67,359.45" style="stroke:#181818;stroke-width:1;"/></g><!--link Position Manager to DCA Engine--><g class="link" data-entity-1="Position Manager" data-entity-2="DCA Engine" data-source-line="21" data-uid="lnk19" id="link_Position Manager_DCA Engine"><path d="M1302.81,406.53 C1270.47,426.07 1228.9949,451.1563 1196.5849,470.7463" fill="none" id="Position Manager-to-DCA Engine" style="stroke:#181818;stroke-width:1;"/><polygon fill="#181818" points="1191.45,473.85,1201.2215,472.6176,1195.7291,471.2636,1197.0831,465.7712,1191.45,473.85" style="stroke:#181818;stroke-width:1;"/></g><!--link Position Manager to Grid Engine--><g class="link" data-entity-1="Position Manager" data-entity-2="Grid Engine" data-source-line="22" data-uid="lnk20" id="link_Position Manager_Grid Engine"><path d="M1334.2,406.53 C1329.14,426.14 1323.337,448.6298 1318.287,468.2298" fill="none" id="Position Manager-to-Grid Engine" style="stroke:#181818;stroke-width:1;"/><polygon fill="#181818" points="1316.79,474.04,1322.909,466.3227,1318.0375,469.1981,1315.162,464.3266,1316.79,474.04" style="stroke:#181818;stroke-width:1;"/></g><!--link Position Manager to Short Position Manager--><g class="link" data-entity-1="Position Manager" data-entity-2="Short Position Manager" data-source-line="23" data-uid="lnk21" id="link_Position Manager_Short Position Manager"><path d="M1373.59,406.53 C1402.8,426.07 1439.9132,450.9235 1469.1932,470.5135" fill="none" id="Position Manager-to-Short Position Manager" style="stroke:#181818;stroke-width:1;"/><polygon fill="#181818" points="1474.18,473.85,1468.9241,465.5208,1470.0243,471.0696,1464.4755,472.1699,1474.18,473.85" style="stroke:#181818;stroke-width:1;"/></g><!--link DCA Engine to Exchange Connector--><g class="link" data-entity-1="DCA Engine" data-entity-2="Exchange Connector" data-source-line="25" data-uid="lnk22" id="link_DCA Engine_Exchange Connector"><path d="M1185.39,520.97 C1212.69,540.52 1247.1622,565.2062 1274.5122,584.7962" fill="none" id="DCA Engine-to-Exchange Connector" style="stroke:#181818;stroke-width:1;"/><polygon fill="#181818" points="1279.39,588.29,1274.4025,579.7974,1275.3252,585.3785,1269.744,586.3011,1279.39,588.29" style="stroke:#181818;stroke-width:1;"/></g><!--link Grid Engine to Exchange Connector--><g class="link" data-entity-1="Grid Engine" data-entity-2="Exchange Connector" data-source-line="26" data-uid="lnk23" id="link_Grid Engine_Exchange Connector"><path d="M1311,520.97 C1311,540.58 1311,562.89 1311,582.49" fill="none" id="Grid Engine-to-Exchange Connector" style="stroke:#181818;stroke-width:1;"/><polygon fill="#181818" points="1311,588.49,1315,579.49,1311,583.49,1307,579.49,1311,588.49" style="stroke:#181818;stroke-width:1;"/></g><!--link Short Position Manager to Exchange Connector--><g class="link" data-entity-1="Short Position Manager" data-entity-2="Exchange Connector" data-source-line="27" data-uid="lnk24" id="link_Short Position Manager_Exchange Connector"><path d="M1468.61,520.97 C1434.36,540.52 1390.2012,565.7263 1355.8712,585.3163" fill="none" id="Short Position Manager-to-Exchange Connector" style="stroke:#181818;stroke-width:1;"/><polygon fill="#181818" points="1350.66,588.29,1360.4593,587.3036,1355.0027,585.8119,1356.4944,580.3553,1350.66,588.29" style="stroke:#181818;stroke-width:1;"/></g><!--link Risk Manager to Position Manager--><g class="link" data-entity-1="Risk Manager" data-entity-2="Position Manager" data-source-line="29" data-uid="lnk25" id="link_Risk Manager_Position Manager"><path d="M1318.86,300.37 C1323.39,317.87 1328.1279,336.1611 1332.6479,353.6411" fill="none" id="Risk Manager-to-Position Manager" style="stroke:#181818;stroke-width:1;"/><polygon fill="#181818" points="1334.15,359.45,1335.7695,349.7352,1332.8983,354.6092,1328.0243,351.738,1334.15,359.45" style="stroke:#181818;stroke-width:1;"/></g><!--link Stop Controller to Campaign Manager--><g class="link" data-entity-1="Stop Controller" data-entity-2="Campaign Manager" data-source-line="30" data-uid="lnk26" id="link_Stop Controller_Campaign Manager"><path d="M1388.28,87.78 C1414.79,105.28 1446.2926,126.0745 1472.7726,143.5545" fill="none" id="Stop Controller-to-Campaign Manager" style="stroke:#181818;stroke-width:1;"/><polygon fill="#181818" points="1477.78,146.86,1472.4726,138.5635,1473.6072,144.1054,1468.0653,145.24,1477.78,146.86" style="stroke:#181818;stroke-width:1;"/></g><!--link State Recovery to Campaign Manager--><g class="link" data-entity-1="State Recovery" data-entity-2="Campaign Manager" data-source-line="31" data-uid="lnk27" id="link_State Recovery_Campaign Manager"><path d="M1530.01,87.78 C1526.15,105.28 1522.1338,123.5211 1518.2738,141.0011" fill="none" id="State Recovery-to-Campaign Manager" style="stroke:#181818;stroke-width:1;"/><polygon fill="#181818" points="1516.98,146.86,1522.8266,138.9342,1518.0581,141.9776,1515.0148,137.2092,1516.98,146.86" style="stroke:#181818;stroke-width:1;"/></g><!--link Campaign Manager to DB--><g class="link" data-entity-1="Campaign Manager" data-entity-2="DB" data-source-line="47" data-uid="lnk38" id="link_Campaign Manager_DB"><path d="M1548.72,193.99 C1572.14,209.28 1602.4,230.8 1626,253.6 C1700.97,326.04 1767.8161,424.449 1796.7661,469.299" fill="none" id="Campaign Manager-to-DB" style="stroke:#181818;stroke-width:1;"/><polygon fill="#181818" points="1800.02,474.34,1798.4998,464.6092,1797.3084,470.1391,1791.7784,468.9477,1800.02,474.34" style="stroke:#181818;stroke-width:1;"/></g><!--link Strategy Orchestrator to DB--><g class="link" data-entity-1="Strategy Orchestrator" data-entity-2="DB" data-source-line="48" data-uid="lnk39" id="link_Strategy Orchestrator_DB"><path d="M1543.48,300.38 C1566.38,316.86 1598.13,339.73 1626,359.89 C1681.73,400.22 1741.7697,443.8881 1778.8897,470.9181" fill="none" id="Strategy Orchestrator-to-DB" style="stroke:#181818;stroke-width:1;"/><polygon fill="#181818" points="1783.74,474.45,1778.8191,465.9186,1779.6981,471.5067,1774.1099,472.3857,1783.74,474.45" style="stroke:#181818;stroke-width:1;"/></g><!--link Position Manager to DB--><g class="link" data-entity-1="Position Manager" data-entity-2="DB" data-source-line="49" data-uid="lnk40" id="link_Position Manager_DB"><path d="M1420.7,402.55 C1426.55,403.81 1432.36,405.03 1438,406.19 C1581.89,435.72 1625.49,414.54 1763,466.19 C1768.88,468.4 1769.5972,468.3885 1775.2772,471.4985" fill="none" id="Position Manager-to-DB" style="stroke:#181818;stroke-width:1;"/><polygon fill="#181818" points="1780.54,474.38,1774.5669,466.5492,1776.1544,471.9787,1770.7248,473.5662,1780.54,474.38" style="stroke:#181818;stroke-width:1;"/></g><!--link State Recovery to DB--><g class="link" data-entity-1="State Recovery" data-entity-2="DB" data-source-line="50" data-uid="lnk41" id="link_State Recovery_DB"><path d="M1560.28,87.68 C1577.44,103.56 1600.16,125.74 1618,147.3 C1690.6,235.03 1708.3,258.95 1761,359.89 C1781.25,398.68 1796.3537,441.3044 1805.3137,468.8444" fill="none" id="State Recovery-to-DB" style="stroke:#181818;stroke-width:1;"/><polygon fill="#181818" points="1807.17,474.55,1808.1893,464.754,1805.6231,469.7953,1800.5818,467.2291,1807.17,474.55" style="stroke:#181818;stroke-width:1;"/></g><!--link Market Analyzer to Cache--><g class="link" data-entity-1="Market Analyzer" data-entity-2="Cache" data-source-line="62" data-uid="lnk48" id="link_Market Analyzer_Cache"><path d="M1564.59,406.53 C1589.21,423.51 1618.3418,443.602 1645.4818,462.332" fill="none" id="Market Analyzer-to-Cache" style="stroke:#181818;stroke-width:1;"/><polygon fill="#181818" points="1650.42,465.74,1645.2847,457.3359,1646.3048,462.9,1640.7407,463.9202,1650.42,465.74" style="stroke:#181818;stroke-width:1;"/></g><!--link Position Manager to Cache--><g class="link" data-entity-1="Position Manager" data-entity-2="Cache" data-source-line="63" data-uid="lnk49" id="link_Position Manager_Cache"><path d="M1420.72,404.36 C1478.27,419.55 1557.15,441.84 1625,466.19 C1631.36,468.47 1632.407,468.7775 1638.907,471.4375" fill="none" id="Position Manager-to-Cache" style="stroke:#181818;stroke-width:1;"/><polygon fill="#181818" points="1644.46,473.71,1637.6455,466.5993,1639.8325,471.8163,1634.6155,474.0033,1644.46,473.71" style="stroke:#181818;stroke-width:1;"/></g><!--SRC=[VPFDJiCm3CVlUGfh5qwy0PiqDeIGc82D6qALIKCNjKkg99ieY7SdYJlKh-nKsVcxjd-sQ-Gb5W9cAppKA0i5hmPpgGhODTQ9mmn-6C3Ryla1TiASX7aFvhzuWyf7atFd33fHDF1a-5xOO6dp3k7fMLlffExhxutCuKuLKWcAtslZO5AwNYsxoWsQKZXOAgoQxrQobROSbADhM6dbZAwgVv-l4BQ2Qzz94rrtNtoFoXFmKYLuA9dzCjRj6Awl5rCzZrsad0R1Ke1YpBZjY_8H0JR-0ocxw5AQtYHIejHuM3S5IQUOzf9Sa2NIf2DOV_GNSFRt8JdLmPAaTEmAvlCvR9hTooFSLfgNmMOvEln0woyglim0BQnl6QlFXqO1h_XH2TjU5t9-F1mh31LdlCrautgUhSpIDaX1VaTNcjLje-GjFEEi4YTHaPrpx9eEIv7LHdzArtEt_ngai1vOnWcOfQEONdZVtgLb3S_JywJ0CUt0Y-XkHIvjXwxIkKSOlP7i2dqskBdXuRjOT31JvDfFeuLyY2UJXVaCoVeAgEKppIp-hwL0ZPrT0SFm-cBHiPHKf_7n3m00]--></g></svg>