<svg xmlns="http://www.w3.org/2000/svg" xmlns:xlink="http://www.w3.org/1999/xlink" contentStyleType="text/css" data-diagram-type="ACTIVITY" height="1168px" preserveAspectRatio="none" style="width:1104px;height:1168px;background:#FFFFFF;" version="1.1" viewBox="0 0 1104 1168" width="1104px" zoomAndPan="magnify"><defs/><g><ellipse cx="552.2461" cy="20" fill="#222222" rx="10" ry="10" style="stroke:#222222;stroke-width:1;"/><rect fill="#F1F1F1" height="33.9688" rx="12.5" ry="12.5" style="stroke:#181818;stroke-width:0.5;" width="171.0605" x="466.7158" y="50"/><text fill="#000000" font-family="sans-serif" font-size="12" lengthAdjust="spacing" textLength="151.0605" x="476.7158" y="71.1387">System Restart Detected</text><rect fill="#F1F1F1" height="33.9688" rx="12.5" ry="12.5" style="stroke:#181818;stroke-width:0.5;" width="165.4063" x="469.543" y="103.9688"/><text fill="#000000" font-family="sans-serif" font-size="12" lengthAdjust="spacing" textLength="145.4063" x="479.543" y="125.1074">Load Recovery Manager</text><rect fill="#555555" height="6" rx="2.5" ry="2.5" style="stroke:#555555;stroke-width:1;" width="830.1504" x="137.1709" y="157.9375"/><rect fill="#F1F1F1" height="33.9688" rx="12.5" ry="12.5" style="stroke:#181818;stroke-width:0.5;" width="161.1582" x="158.5332" y="183.9375"/><text fill="#000000" font-family="sans-serif" font-size="12" lengthAdjust="spacing" textLength="141.1582" x="168.5332" y="205.0762">Load Active Campaigns</text><rect fill="#F1F1F1" height="33.9688" rx="12.5" ry="12.5" style="stroke:#181818;stroke-width:0.5;" width="175.8828" x="151.1709" y="237.9063"/><text fill="#000000" font-family="sans-serif" font-size="12" lengthAdjust="spacing" textLength="155.8828" x="161.1709" y="259.0449">Validate Campaign States</text><rect fill="#F1F1F1" height="33.9688" rx="12.5" ry="12.5" style="stroke:#181818;stroke-width:0.5;" width="155.2402" x="380.0527" y="183.9375"/><text fill="#000000" font-family="sans-serif" font-size="12" lengthAdjust="spacing" textLength="135.2402" x="390.0527" y="205.0762">Load Active Strategies</text><rect fill="#F1F1F1" height="33.9688" rx="12.5" ry="12.5" style="stroke:#181818;stroke-width:0.5;" width="205.2383" x="355.0537" y="237.9063"/><text fill="#000000" font-family="sans-serif" font-size="12" lengthAdjust="spacing" textLength="185.2383" x="365.0537" y="259.0449">Validate Strategy Assignments</text><rect fill="#F1F1F1" height="33.9688" rx="12.5" ry="12.5" style="stroke:#181818;stroke-width:0.5;" width="124.9063" x="606.8809" y="183.9375"/><text fill="#000000" font-family="sans-serif" font-size="12" lengthAdjust="spacing" textLength="104.9063" x="616.8809" y="205.0762">Load All Positions</text><rect fill="#F1F1F1" height="33.9688" rx="12.5" ry="12.5" style="stroke:#181818;stroke-width:0.5;" width="162.084" x="588.292" y="237.9063"/><text fill="#000000" font-family="sans-serif" font-size="12" lengthAdjust="spacing" textLength="142.084" x="598.292" y="259.0449">Validate Position States</text><rect fill="#F1F1F1" height="33.9688" rx="12.5" ry="12.5" style="stroke:#181818;stroke-width:0.5;" width="174.9453" x="778.376" y="183.9375"/><text fill="#000000" font-family="sans-serif" font-size="12" lengthAdjust="spacing" textLength="154.9453" x="788.376" y="205.0762">Load Active Stop Controls</text><rect fill="#F1F1F1" height="33.9688" rx="12.5" ry="12.5" style="stroke:#181818;stroke-width:0.5;" width="147.0078" x="792.3447" y="237.9063"/><text fill="#000000" font-family="sans-serif" font-size="12" lengthAdjust="spacing" textLength="127.0078" x="802.3447" y="259.0449">Validate Stop Scopes</text><rect fill="#555555" height="6" rx="2.5" ry="2.5" style="stroke:#555555;stroke-width:1;" width="830.1504" x="137.1709" y="291.875"/><rect fill="#F1F1F1" height="33.9688" rx="12.5" ry="12.5" style="stroke:#181818;stroke-width:0.5;" width="227.5566" x="438.4678" y="317.875"/><text fill="#000000" font-family="sans-serif" font-size="12" lengthAdjust="spacing" textLength="207.5566" x="448.4678" y="339.0137">Cross-Reference Data Consistency</text><rect fill="#F1F1F1" height="33.9688" rx="12.5" ry="12.5" style="stroke:#181818;stroke-width:0.5;" width="214.6953" x="444.8984" y="420.2461"/><text fill="#000000" font-family="sans-serif" font-size="12" lengthAdjust="spacing" textLength="194.6953" x="454.8984" y="441.3848">Execute Data Repair Procedures</text><rect fill="#F1F1F1" height="33.9688" rx="12.5" ry="12.5" style="stroke:#181818;stroke-width:0.5;" width="172.7949" x="465.8486" y="489.2148"/><text fill="#000000" font-family="sans-serif" font-size="12" lengthAdjust="spacing" textLength="152.7949" x="475.8486" y="510.3535">Log Inconsistency Details</text><polygon fill="#F1F1F1" points="473.6375,371.8438,630.8547,371.8438,642.8547,383.8438,630.8547,395.8438,473.6375,395.8438,461.6375,383.8438,473.6375,371.8438" style="stroke:#181818;stroke-width:0.5;"/><text fill="#000000" font-family="sans-serif" font-size="11" lengthAdjust="spacing" textLength="19.0083" x="556.2461" y="406.0542">yes</text><text fill="#000000" font-family="sans-serif" font-size="11" lengthAdjust="spacing" textLength="157.2173" x="473.6375" y="387.6519">Data Inconsistencies Found?</text><polygon fill="#F1F1F1" points="552.2461,543.1836,564.2461,555.1836,552.2461,567.1836,540.2461,555.1836,552.2461,543.1836" style="stroke:#181818;stroke-width:0.5;"/><path d="M657.1992,577.1836 L657.1992,600.8828 L637.1992,604.8828 L657.1992,608.8828 L657.1992,632.582 A0,0 0 0 0 657.1992,632.582 L845.022,632.582 A0,0 0 0 0 845.022,632.582 L845.022,587.1836 L835.022,577.1836 L657.1992,577.1836 A0,0 0 0 0 657.1992,577.1836" fill="#FEFFDD" style="stroke:#181818;stroke-width:0.5;"/><path d="M835.022,577.1836 L835.022,587.1836 L845.022,587.1836 L835.022,577.1836" fill="#FEFFDD" style="stroke:#181818;stroke-width:0.5;"/><text fill="#000000" font-family="sans-serif" font-size="13" lengthAdjust="spacing" textLength="144.8154" x="663.1992" y="594.2505">- Verify order statuses</text><text fill="#000000" font-family="sans-serif" font-size="13" lengthAdjust="spacing" textLength="166.8228" x="663.1992" y="609.3833">- Check account balances</text><text fill="#000000" font-family="sans-serif" font-size="13" lengthAdjust="spacing" textLength="161.6812" x="663.1992" y="624.5161">- Validate position states</text><rect fill="#F1F1F1" height="33.9688" rx="12.5" ry="12.5" style="stroke:#181818;stroke-width:0.5;" width="169.9063" x="467.293" y="587.8984"/><text fill="#000000" font-family="sans-serif" font-size="12" lengthAdjust="spacing" textLength="149.9063" x="477.293" y="609.0371">Sync with Exchange APIs</text><rect fill="#F1F1F1" height="33.9688" rx="12.5" ry="12.5" style="stroke:#181818;stroke-width:0.5;" width="219.0371" x="442.7275" y="700.9844"/><text fill="#000000" font-family="sans-serif" font-size="12" lengthAdjust="spacing" textLength="199.0371" x="452.7275" y="722.123">Execute Exchange Reconciliation</text><rect fill="#F1F1F1" height="33.9688" rx="12.5" ry="12.5" style="stroke:#181818;stroke-width:0.5;" width="140.416" x="482.0381" y="769.9531"/><text fill="#000000" font-family="sans-serif" font-size="12" lengthAdjust="spacing" textLength="120.416" x="492.0381" y="791.0918">Update Local States</text><polygon fill="#F1F1F1" points="488.5154,652.582,615.9768,652.582,627.9768,664.582,615.9768,676.582,488.5154,676.582,476.5154,664.582,488.5154,652.582" style="stroke:#181818;stroke-width:0.5;"/><text fill="#000000" font-family="sans-serif" font-size="11" lengthAdjust="spacing" textLength="19.0083" x="556.2461" y="686.7925">yes</text><text fill="#000000" font-family="sans-serif" font-size="11" lengthAdjust="spacing" textLength="127.4614" x="488.5154" y="668.3901">Exchange Sync Issues?</text><polygon fill="#F1F1F1" points="552.2461,823.9219,564.2461,835.9219,552.2461,847.9219,540.2461,835.9219,552.2461,823.9219" style="stroke:#181818;stroke-width:0.5;"/><rect fill="#555555" height="6" rx="2.5" ry="2.5" style="stroke:#555555;stroke-width:1;" width="1082.4922" x="11" y="867.9219"/><rect fill="#F1F1F1" height="33.9688" rx="12.5" ry="12.5" style="stroke:#181818;stroke-width:0.5;" width="201.4004" x="23" y="893.9219"/><text fill="#000000" font-family="sans-serif" font-size="12" lengthAdjust="spacing" textLength="181.4004" x="33" y="915.0605">Resume Campaign Monitoring</text><rect fill="#F1F1F1" height="33.9688" rx="12.5" ry="12.5" style="stroke:#181818;stroke-width:0.5;" width="209.8906" x="252.4004" y="893.9219"/><text fill="#000000" font-family="sans-serif" font-size="12" lengthAdjust="spacing" textLength="189.8906" x="262.4004" y="915.0605">Resume Strategy Orchestration</text><rect fill="#F1F1F1" height="33.9688" rx="12.5" ry="12.5" style="stroke:#181818;stroke-width:0.5;" width="202.4785" x="490.291" y="893.9219"/><text fill="#000000" font-family="sans-serif" font-size="12" lengthAdjust="spacing" textLength="182.4785" x="500.291" y="915.0605">Resume Position Management</text><rect fill="#F1F1F1" height="33.9688" rx="12.5" ry="12.5" style="stroke:#181818;stroke-width:0.5;" width="167.3984" x="720.7695" y="893.9219"/><text fill="#000000" font-family="sans-serif" font-size="12" lengthAdjust="spacing" textLength="147.3984" x="730.7695" y="915.0605">Resume Market Analysis</text><rect fill="#F1F1F1" height="33.9688" rx="12.5" ry="12.5" style="stroke:#181818;stroke-width:0.5;" width="165.3242" x="916.168" y="893.9219"/><text fill="#000000" font-family="sans-serif" font-size="12" lengthAdjust="spacing" textLength="145.3242" x="926.168" y="915.0605">Resume Risk Monitoring</text><rect fill="#555555" height="6" rx="2.5" ry="2.5" style="stroke:#555555;stroke-width:1;" width="1082.4922" x="11" y="947.8906"/><rect fill="#F1F1F1" height="33.9688" rx="12.5" ry="12.5" style="stroke:#181818;stroke-width:0.5;" width="191.4629" x="456.5146" y="973.8906"/><text fill="#000000" font-family="sans-serif" font-size="12" lengthAdjust="spacing" textLength="171.4629" x="466.5146" y="995.0293">Create Recovery Checkpoint</text><rect fill="#F1F1F1" height="33.9688" rx="12.5" ry="12.5" style="stroke:#181818;stroke-width:0.5;" width="180.1719" x="462.1602" y="1027.8594"/><text fill="#000000" font-family="sans-serif" font-size="12" lengthAdjust="spacing" textLength="160.1719" x="472.1602" y="1048.998">Generate Recovery Report</text><rect fill="#F1F1F1" height="33.9688" rx="12.5" ry="12.5" style="stroke:#181818;stroke-width:0.5;" width="189.1367" x="457.6777" y="1081.8281"/><text fill="#000000" font-family="sans-serif" font-size="12" lengthAdjust="spacing" textLength="169.1367" x="467.6777" y="1102.9668">Send Recovery Notifications</text><ellipse cx="552.2461" cy="1146.7969" fill="none" rx="11" ry="11" style="stroke:#222222;stroke-width:1;"/><ellipse cx="552.2461" cy="1146.7969" fill="#222222" rx="6" ry="6" style="stroke:#222222;stroke-width:1;"/><line style="stroke:#181818;stroke-width:1;" x1="552.2461" x2="552.2461" y1="30" y2="50"/><polygon fill="#181818" points="548.2461,40,552.2461,50,556.2461,40,552.2461,44" style="stroke:#181818;stroke-width:1;"/><line style="stroke:#181818;stroke-width:1;" x1="552.2461" x2="552.2461" y1="83.9688" y2="103.9688"/><polygon fill="#181818" points="548.2461,93.9688,552.2461,103.9688,556.2461,93.9688,552.2461,97.9688" style="stroke:#181818;stroke-width:1;"/><line style="stroke:#181818;stroke-width:1;" x1="239.1123" x2="239.1123" y1="217.9063" y2="237.9063"/><polygon fill="#181818" points="235.1123,227.9063,239.1123,237.9063,243.1123,227.9063,239.1123,231.9063" style="stroke:#181818;stroke-width:1;"/><line style="stroke:#181818;stroke-width:1;" x1="457.6729" x2="457.6729" y1="217.9063" y2="237.9063"/><polygon fill="#181818" points="453.6729,227.9063,457.6729,237.9063,461.6729,227.9063,457.6729,231.9063" style="stroke:#181818;stroke-width:1;"/><line style="stroke:#181818;stroke-width:1;" x1="669.334" x2="669.334" y1="217.9063" y2="237.9063"/><polygon fill="#181818" points="665.334,227.9063,669.334,237.9063,673.334,227.9063,669.334,231.9063" style="stroke:#181818;stroke-width:1;"/><line style="stroke:#181818;stroke-width:1;" x1="865.8486" x2="865.8486" y1="217.9063" y2="237.9063"/><polygon fill="#181818" points="861.8486,227.9063,865.8486,237.9063,869.8486,227.9063,865.8486,231.9063" style="stroke:#181818;stroke-width:1;"/><line style="stroke:#181818;stroke-width:1;" x1="239.1123" x2="239.1123" y1="163.9375" y2="183.9375"/><polygon fill="#181818" points="235.1123,173.9375,239.1123,183.9375,243.1123,173.9375,239.1123,177.9375" style="stroke:#181818;stroke-width:1;"/><line style="stroke:#181818;stroke-width:1;" x1="457.6729" x2="457.6729" y1="163.9375" y2="183.9375"/><polygon fill="#181818" points="453.6729,173.9375,457.6729,183.9375,461.6729,173.9375,457.6729,177.9375" style="stroke:#181818;stroke-width:1;"/><line style="stroke:#181818;stroke-width:1;" x1="669.334" x2="669.334" y1="163.9375" y2="183.9375"/><polygon fill="#181818" points="665.334,173.9375,669.334,183.9375,673.334,173.9375,669.334,177.9375" style="stroke:#181818;stroke-width:1;"/><line style="stroke:#181818;stroke-width:1;" x1="865.8486" x2="865.8486" y1="163.9375" y2="183.9375"/><polygon fill="#181818" points="861.8486,173.9375,865.8486,183.9375,869.8486,173.9375,865.8486,177.9375" style="stroke:#181818;stroke-width:1;"/><line style="stroke:#181818;stroke-width:1;" x1="239.1123" x2="239.1123" y1="271.875" y2="291.875"/><polygon fill="#181818" points="235.1123,281.875,239.1123,291.875,243.1123,281.875,239.1123,285.875" style="stroke:#181818;stroke-width:1;"/><line style="stroke:#181818;stroke-width:1;" x1="457.6729" x2="457.6729" y1="271.875" y2="291.875"/><polygon fill="#181818" points="453.6729,281.875,457.6729,291.875,461.6729,281.875,457.6729,285.875" style="stroke:#181818;stroke-width:1;"/><line style="stroke:#181818;stroke-width:1;" x1="669.334" x2="669.334" y1="271.875" y2="291.875"/><polygon fill="#181818" points="665.334,281.875,669.334,291.875,673.334,281.875,669.334,285.875" style="stroke:#181818;stroke-width:1;"/><line style="stroke:#181818;stroke-width:1;" x1="865.8486" x2="865.8486" y1="271.875" y2="291.875"/><polygon fill="#181818" points="861.8486,281.875,865.8486,291.875,869.8486,281.875,865.8486,285.875" style="stroke:#181818;stroke-width:1;"/><line style="stroke:#181818;stroke-width:1;" x1="552.2461" x2="552.2461" y1="137.9375" y2="157.9375"/><polygon fill="#181818" points="548.2461,147.9375,552.2461,157.9375,556.2461,147.9375,552.2461,151.9375" style="stroke:#181818;stroke-width:1;"/><line style="stroke:#181818;stroke-width:1;" x1="552.2461" x2="552.2461" y1="297.875" y2="317.875"/><polygon fill="#181818" points="548.2461,307.875,552.2461,317.875,556.2461,307.875,552.2461,311.875" style="stroke:#181818;stroke-width:1;"/><line style="stroke:#181818;stroke-width:1;" x1="552.2461" x2="552.2461" y1="454.2148" y2="489.2148"/><polygon fill="#181818" points="548.2461,479.2148,552.2461,489.2148,556.2461,479.2148,552.2461,483.2148" style="stroke:#181818;stroke-width:1;"/><line style="stroke:#181818;stroke-width:1;" x1="552.2461" x2="552.2461" y1="395.8438" y2="420.2461"/><polygon fill="#181818" points="548.2461,410.2461,552.2461,420.2461,556.2461,410.2461,552.2461,414.2461" style="stroke:#181818;stroke-width:1;"/><line style="stroke:#181818;stroke-width:1;" x1="642.8547" x2="669.5938" y1="383.8438" y2="383.8438"/><polygon fill="#181818" points="665.5938,461.7148,669.5938,471.7148,673.5938,461.7148,669.5938,465.7148" style="stroke:#181818;stroke-width:1;"/><line style="stroke:#181818;stroke-width:1;" x1="669.5938" x2="669.5938" y1="383.8438" y2="555.1836"/><line style="stroke:#181818;stroke-width:1;" x1="669.5938" x2="564.2461" y1="555.1836" y2="555.1836"/><polygon fill="#181818" points="574.2461,551.1836,564.2461,555.1836,574.2461,559.1836,570.2461,555.1836" style="stroke:#181818;stroke-width:1;"/><line style="stroke:#181818;stroke-width:1;" x1="552.2461" x2="552.2461" y1="523.1836" y2="543.1836"/><polygon fill="#181818" points="548.2461,533.1836,552.2461,543.1836,556.2461,533.1836,552.2461,537.1836" style="stroke:#181818;stroke-width:1;"/><line style="stroke:#181818;stroke-width:1;" x1="552.2461" x2="552.2461" y1="351.8438" y2="371.8438"/><polygon fill="#181818" points="548.2461,361.8438,552.2461,371.8438,556.2461,361.8438,552.2461,365.8438" style="stroke:#181818;stroke-width:1;"/><line style="stroke:#181818;stroke-width:1;" x1="552.2461" x2="552.2461" y1="567.1836" y2="587.8984"/><polygon fill="#181818" points="548.2461,577.8984,552.2461,587.8984,556.2461,577.8984,552.2461,581.8984" style="stroke:#181818;stroke-width:1;"/><line style="stroke:#181818;stroke-width:1;" x1="552.2461" x2="552.2461" y1="734.9531" y2="769.9531"/><polygon fill="#181818" points="548.2461,759.9531,552.2461,769.9531,556.2461,759.9531,552.2461,763.9531" style="stroke:#181818;stroke-width:1;"/><line style="stroke:#181818;stroke-width:1;" x1="552.2461" x2="552.2461" y1="676.582" y2="700.9844"/><polygon fill="#181818" points="548.2461,690.9844,552.2461,700.9844,556.2461,690.9844,552.2461,694.9844" style="stroke:#181818;stroke-width:1;"/><line style="stroke:#181818;stroke-width:1;" x1="627.9768" x2="671.7646" y1="664.582" y2="664.582"/><polygon fill="#181818" points="667.7646,742.4531,671.7646,752.4531,675.7646,742.4531,671.7646,746.4531" style="stroke:#181818;stroke-width:1;"/><line style="stroke:#181818;stroke-width:1;" x1="671.7646" x2="671.7646" y1="664.582" y2="835.9219"/><line style="stroke:#181818;stroke-width:1;" x1="671.7646" x2="564.2461" y1="835.9219" y2="835.9219"/><polygon fill="#181818" points="574.2461,831.9219,564.2461,835.9219,574.2461,839.9219,570.2461,835.9219" style="stroke:#181818;stroke-width:1;"/><line style="stroke:#181818;stroke-width:1;" x1="552.2461" x2="552.2461" y1="803.9219" y2="823.9219"/><polygon fill="#181818" points="548.2461,813.9219,552.2461,823.9219,556.2461,813.9219,552.2461,817.9219" style="stroke:#181818;stroke-width:1;"/><line style="stroke:#181818;stroke-width:1;" x1="552.2461" x2="552.2461" y1="621.8672" y2="652.582"/><polygon fill="#181818" points="548.2461,642.582,552.2461,652.582,556.2461,642.582,552.2461,646.582" style="stroke:#181818;stroke-width:1;"/><line style="stroke:#181818;stroke-width:1;" x1="123.7002" x2="123.7002" y1="873.9219" y2="893.9219"/><polygon fill="#181818" points="119.7002,883.9219,123.7002,893.9219,127.7002,883.9219,123.7002,887.9219" style="stroke:#181818;stroke-width:1;"/><line style="stroke:#181818;stroke-width:1;" x1="357.3457" x2="357.3457" y1="873.9219" y2="893.9219"/><polygon fill="#181818" points="353.3457,883.9219,357.3457,893.9219,361.3457,883.9219,357.3457,887.9219" style="stroke:#181818;stroke-width:1;"/><line style="stroke:#181818;stroke-width:1;" x1="591.5303" x2="591.5303" y1="873.9219" y2="893.9219"/><polygon fill="#181818" points="587.5303,883.9219,591.5303,893.9219,595.5303,883.9219,591.5303,887.9219" style="stroke:#181818;stroke-width:1;"/><line style="stroke:#181818;stroke-width:1;" x1="804.4688" x2="804.4688" y1="873.9219" y2="893.9219"/><polygon fill="#181818" points="800.4688,883.9219,804.4688,893.9219,808.4688,883.9219,804.4688,887.9219" style="stroke:#181818;stroke-width:1;"/><line style="stroke:#181818;stroke-width:1;" x1="998.8301" x2="998.8301" y1="873.9219" y2="893.9219"/><polygon fill="#181818" points="994.8301,883.9219,998.8301,893.9219,1002.8301,883.9219,998.8301,887.9219" style="stroke:#181818;stroke-width:1;"/><line style="stroke:#181818;stroke-width:1;" x1="123.7002" x2="123.7002" y1="927.8906" y2="947.8906"/><polygon fill="#181818" points="119.7002,937.8906,123.7002,947.8906,127.7002,937.8906,123.7002,941.8906" style="stroke:#181818;stroke-width:1;"/><line style="stroke:#181818;stroke-width:1;" x1="357.3457" x2="357.3457" y1="927.8906" y2="947.8906"/><polygon fill="#181818" points="353.3457,937.8906,357.3457,947.8906,361.3457,937.8906,357.3457,941.8906" style="stroke:#181818;stroke-width:1;"/><line style="stroke:#181818;stroke-width:1;" x1="591.5303" x2="591.5303" y1="927.8906" y2="947.8906"/><polygon fill="#181818" points="587.5303,937.8906,591.5303,947.8906,595.5303,937.8906,591.5303,941.8906" style="stroke:#181818;stroke-width:1;"/><line style="stroke:#181818;stroke-width:1;" x1="804.4688" x2="804.4688" y1="927.8906" y2="947.8906"/><polygon fill="#181818" points="800.4688,937.8906,804.4688,947.8906,808.4688,937.8906,804.4688,941.8906" style="stroke:#181818;stroke-width:1;"/><line style="stroke:#181818;stroke-width:1;" x1="998.8301" x2="998.8301" y1="927.8906" y2="947.8906"/><polygon fill="#181818" points="994.8301,937.8906,998.8301,947.8906,1002.8301,937.8906,998.8301,941.8906" style="stroke:#181818;stroke-width:1;"/><line style="stroke:#181818;stroke-width:1;" x1="552.2461" x2="552.2461" y1="847.9219" y2="867.9219"/><polygon fill="#181818" points="548.2461,857.9219,552.2461,867.9219,556.2461,857.9219,552.2461,861.9219" style="stroke:#181818;stroke-width:1;"/><line style="stroke:#181818;stroke-width:1;" x1="552.2461" x2="552.2461" y1="953.8906" y2="973.8906"/><polygon fill="#181818" points="548.2461,963.8906,552.2461,973.8906,556.2461,963.8906,552.2461,967.8906" style="stroke:#181818;stroke-width:1;"/><line style="stroke:#181818;stroke-width:1;" x1="552.2461" x2="552.2461" y1="1007.8594" y2="1027.8594"/><polygon fill="#181818" points="548.2461,1017.8594,552.2461,1027.8594,556.2461,1017.8594,552.2461,1021.8594" style="stroke:#181818;stroke-width:1;"/><line style="stroke:#181818;stroke-width:1;" x1="552.2461" x2="552.2461" y1="1061.8281" y2="1081.8281"/><polygon fill="#181818" points="548.2461,1071.8281,552.2461,1081.8281,556.2461,1071.8281,552.2461,1075.8281" style="stroke:#181818;stroke-width:1;"/><line style="stroke:#181818;stroke-width:1;" x1="552.2461" x2="552.2461" y1="1115.7969" y2="1135.7969"/><polygon fill="#181818" points="548.2461,1125.7969,552.2461,1135.7969,556.2461,1125.7969,552.2461,1129.7969" style="stroke:#181818;stroke-width:1;"/><!--SRC=[ZLD1Rjj03Bph5JmcXtp0FWI6anO6xDQmaDpP5IKjB2y5BfL4lozNajNAg84UnHaDoU5iL1JDLdaVbIvmefY-uOMKd5AnpbPxniBgZZz8UZXWm8fadMKbopa36F6DK_z1iCLBYxuASPsGTsnyWVgd3BdQfu7fNy0AVRXLo5MCKdbZ0In49gI7JOocTQ6WTvIQ1euSlNg-7UHQ_gz1k8Kj1nLkRbG6A7VS9WKA1GnMPAkjS8nF9of9A3Y25rHC4j6Rjy7rPfeluM4exuAR0LiMld4NYkT7q9e2FFGK7rFBrozodKvA9p8J1Ox2ZefEQ9ngpzL2h4-tGz-Ce_aoIxSD3Zwzrl3wvMeC5S7ck3D2ODCMNzLgIa_mJkBB7bWA4h0SQ1Sf3iYs9cS-EMTJAlp21cs_4PfTQQ_Uni7RmPZKO5nwxZmCiuknetXttPcSOcV-D1wJyh3lMpjqsxF3PZxZjEarafRYxl9Nx0uSlBBuKDrUV6BEsVefhhOd85E_VvBd48rl8GNn3lE0SYQ5JS2cj_FSOPryF2z6N4IAqhRpyniEqR9FBLVVAP0iO8i8IuBof36NVx3wqZkSNaGMBS2_0G00]--></g></svg>