<svg xmlns="http://www.w3.org/2000/svg" xmlns:xlink="http://www.w3.org/1999/xlink" contentStyleType="text/css" data-diagram-type="ACTIVITY" height="1162px" preserveAspectRatio="none" style="width:946px;height:1162px;background:#FFFFFF;" version="1.1" viewBox="0 0 946 1162" width="946px" zoomAndPan="magnify"><defs/><g><ellipse cx="442.9863" cy="20" fill="#222222" rx="10" ry="10" style="stroke:#222222;stroke-width:1;"/><rect fill="#F1F1F1" height="33.9688" rx="12.5" ry="12.5" style="stroke:#181818;stroke-width:0.5;" width="129.0781" x="378.4473" y="50"/><text fill="#000000" font-family="sans-serif" font-size="12" lengthAdjust="spacing" textLength="109.0781" x="388.4473" y="71.1387">Campaign Started</text><rect fill="#F1F1F1" height="33.9688" rx="12.5" ry="12.5" style="stroke:#181818;stroke-width:0.5;" width="204.2188" x="340.877" y="103.9688"/><text fill="#000000" font-family="sans-serif" font-size="12" lengthAdjust="spacing" textLength="184.2188" x="350.877" y="125.1074">Load Initial Strategy Allocation</text><path d="M577.7197,191.9375 L577.7197,223.2031 L557.7197,227.2031 L577.7197,231.2031 L577.7197,262.4688 A0,0 0 0 0 577.7197,262.4688 L772.3408,262.4688 A0,0 0 0 0 772.3408,262.4688 L772.3408,201.9375 L762.3408,191.9375 L577.7197,191.9375 A0,0 0 0 0 577.7197,191.9375" fill="#FEFFDD" style="stroke:#181818;stroke-width:0.5;"/><path d="M762.3408,191.9375 L762.3408,201.9375 L772.3408,201.9375 L762.3408,191.9375" fill="#FEFFDD" style="stroke:#181818;stroke-width:0.5;"/><text fill="#000000" font-family="sans-serif" font-size="13" lengthAdjust="spacing" textLength="173.6211" x="583.7197" y="209.0044">- Price vs MA(50), MA(200)</text><text fill="#000000" font-family="sans-serif" font-size="13" lengthAdjust="spacing" textLength="71.7603" x="583.7197" y="224.1372">- RSI levels</text><text fill="#000000" font-family="sans-serif" font-size="13" lengthAdjust="spacing" textLength="118.7393" x="583.7197" y="239.27">- Volatility metrics</text><text fill="#000000" font-family="sans-serif" font-size="13" lengthAdjust="spacing" textLength="114.9497" x="583.7197" y="254.4028">- Volume analysis</text><rect fill="#F1F1F1" height="33.9688" rx="12.5" ry="12.5" style="stroke:#181818;stroke-width:0.5;" width="229.4668" x="328.2529" y="210.2188"/><text fill="#000000" font-family="sans-serif" font-size="12" lengthAdjust="spacing" textLength="209.4668" x="338.2529" y="231.3574">Analyze Current Market Conditions</text><path d="M591.7383,272.4688 L591.7383,303.7344 L571.7383,307.7344 L591.7383,311.7344 L591.7383,343 A0,0 0 0 0 591.7383,343 L770.4902,343 A0,0 0 0 0 770.4902,343 L770.4902,282.4688 L760.4902,272.4688 L591.7383,272.4688 A0,0 0 0 0 591.7383,272.4688" fill="#FEFFDD" style="stroke:#181818;stroke-width:0.5;"/><path d="M760.4902,272.4688 L760.4902,282.4688 L770.4902,282.4688 L760.4902,272.4688" fill="#FEFFDD" style="stroke:#181818;stroke-width:0.5;"/><text fill="#000000" font-family="sans-serif" font-size="13" lengthAdjust="spacing" textLength="116.0034" x="597.7383" y="289.5356">- ROI per strategy</text><text fill="#000000" font-family="sans-serif" font-size="13" lengthAdjust="spacing" textLength="157.752" x="597.7383" y="304.6685">- Goal achievement rate</text><text fill="#000000" font-family="sans-serif" font-size="13" lengthAdjust="spacing" textLength="88.5371" x="597.7383" y="319.8013">- Risk metrics</text><text fill="#000000" font-family="sans-serif" font-size="13" lengthAdjust="spacing" textLength="139.75" x="597.7383" y="334.9341">- Execution efficiency</text><rect fill="#F1F1F1" height="33.9688" rx="12.5" ry="12.5" style="stroke:#181818;stroke-width:0.5;" width="257.5039" x="314.2344" y="290.75"/><text fill="#000000" font-family="sans-serif" font-size="12" lengthAdjust="spacing" textLength="237.5039" x="324.2344" y="311.8887">Evaluate Current Strategy Performance</text><rect fill="#F1F1F1" height="33.9688" rx="12.5" ry="12.5" style="stroke:#181818;stroke-width:0.5;" width="196.6367" x="344.668" y="411.4023"/><text fill="#000000" font-family="sans-serif" font-size="12" lengthAdjust="spacing" textLength="176.6367" x="354.668" y="432.541">Identify Optimal Strategy Mix</text><rect fill="#F1F1F1" height="33.9688" rx="12.5" ry="12.5" style="stroke:#181818;stroke-width:0.5;" width="169.0039" x="358.4844" y="513.7734"/><text fill="#000000" font-family="sans-serif" font-size="12" lengthAdjust="spacing" textLength="149.0039" x="368.4844" y="534.9121">Calculate New Allocation</text><rect fill="#F1F1F1" height="33.9688" rx="12.5" ry="12.5" style="stroke:#181818;stroke-width:0.5;" width="185.6797" x="350.1465" y="567.7422"/><text fill="#000000" font-family="sans-serif" font-size="12" lengthAdjust="spacing" textLength="165.6797" x="360.1465" y="588.8809">Prepare Strategy Transition</text><rect fill="#555555" height="6" rx="2.5" ry="2.5" style="stroke:#555555;stroke-width:1;" width="863.9727" x="11" y="621.7109"/><rect fill="#F1F1F1" height="33.9688" rx="12.5" ry="12.5" style="stroke:#181818;stroke-width:0.5;" width="301.8184" x="23" y="647.7109"/><text fill="#000000" font-family="sans-serif" font-size="12" lengthAdjust="spacing" textLength="281.8184" x="33" y="668.8496">Gracefully Reduce Underperforming Strategies</text><rect fill="#F1F1F1" height="33.9688" rx="12.5" ry="12.5" style="stroke:#181818;stroke-width:0.5;" width="256.1328" x="352.8184" y="647.7109"/><text fill="#000000" font-family="sans-serif" font-size="12" lengthAdjust="spacing" textLength="236.1328" x="362.8184" y="668.8496">Increase Allocation to Better Strategies</text><rect fill="#F1F1F1" height="33.9688" rx="12.5" ry="12.5" style="stroke:#181818;stroke-width:0.5;" width="226.0215" x="636.9512" y="647.7109"/><text fill="#000000" font-family="sans-serif" font-size="12" lengthAdjust="spacing" textLength="206.0215" x="646.9512" y="668.8496">Activate New Strategies if Needed</text><rect fill="#555555" height="6" rx="2.5" ry="2.5" style="stroke:#555555;stroke-width:1;" width="863.9727" x="11" y="701.6797"/><rect fill="#F1F1F1" height="33.9688" rx="12.5" ry="12.5" style="stroke:#181818;stroke-width:0.5;" width="213.418" x="336.2773" y="727.6797"/><text fill="#000000" font-family="sans-serif" font-size="12" lengthAdjust="spacing" textLength="193.418" x="346.2773" y="748.8184">Update Campaign Configuration</text><rect fill="#F1F1F1" height="33.9688" rx="12.5" ry="12.5" style="stroke:#181818;stroke-width:0.5;" width="152.8848" x="366.5439" y="781.6484"/><text fill="#000000" font-family="sans-serif" font-size="12" lengthAdjust="spacing" textLength="132.8848" x="376.5439" y="802.7871">Log Strategy Changes</text><rect fill="#F1F1F1" height="33.9688" rx="12.5" ry="12.5" style="stroke:#181818;stroke-width:0.5;" width="129.1426" x="378.415" y="835.6172"/><text fill="#000000" font-family="sans-serif" font-size="12" lengthAdjust="spacing" textLength="109.1426" x="388.415" y="856.7559">Send Notifications</text><polygon fill="#F1F1F1" points="383.1443,465.3711,502.8284,465.3711,514.8284,477.3711,502.8284,489.3711,383.1443,489.3711,371.1443,477.3711,383.1443,465.3711" style="stroke:#181818;stroke-width:0.5;"/><text fill="#000000" font-family="sans-serif" font-size="11" lengthAdjust="spacing" textLength="19.0083" x="446.9863" y="499.5815">yes</text><text fill="#000000" font-family="sans-serif" font-size="11" lengthAdjust="spacing" textLength="119.6841" x="383.1443" y="481.1792">Reallocation Needed?</text><polygon fill="#F1F1F1" points="442.9863,889.5859,454.9863,901.5859,442.9863,913.5859,430.9863,901.5859,442.9863,889.5859" style="stroke:#181818;stroke-width:0.5;"/><polygon fill="#F1F1F1" points="363.8083,363,522.1643,363,534.1643,375,522.1643,387,363.8083,387,351.8083,375,363.8083,363" style="stroke:#181818;stroke-width:0.5;"/><text fill="#000000" font-family="sans-serif" font-size="11" lengthAdjust="spacing" textLength="19.0083" x="446.9863" y="397.2104">yes</text><text fill="#000000" font-family="sans-serif" font-size="11" lengthAdjust="spacing" textLength="158.356" x="363.8083" y="378.8081">Market Conditions Changed?</text><polygon fill="#F1F1F1" points="442.9863,933.5859,454.9863,945.5859,442.9863,957.5859,430.9863,945.5859,442.9863,933.5859" style="stroke:#181818;stroke-width:0.5;"/><rect fill="#F1F1F1" height="33.9688" rx="12.5" ry="12.5" style="stroke:#181818;stroke-width:0.5;" width="160.5195" x="362.7266" y="977.5859"/><text fill="#000000" font-family="sans-serif" font-size="12" lengthAdjust="spacing" textLength="140.5195" x="372.7266" y="998.7246">Update Strategy States</text><rect fill="#F1F1F1" height="33.9688" rx="12.5" ry="12.5" style="stroke:#181818;stroke-width:0.5;" width="189.418" x="348.2773" y="1031.5547"/><text fill="#000000" font-family="sans-serif" font-size="12" lengthAdjust="spacing" textLength="169.418" x="358.2773" y="1052.6934">Wait for Next Analysis Cycle</text><polygon fill="#F1F1F1" points="442.9863,157.9375,454.9863,169.9375,442.9863,181.9375,430.9863,169.9375,442.9863,157.9375" style="stroke:#181818;stroke-width:0.5;"/><polygon fill="#F1F1F1" points="393.2742,1085.5234,492.6985,1085.5234,504.6985,1097.5234,492.6985,1109.5234,393.2742,1109.5234,381.2742,1097.5234,393.2742,1085.5234" style="stroke:#181818;stroke-width:0.5;"/><text fill="#000000" font-family="sans-serif" font-size="11" lengthAdjust="spacing" textLength="99.4243" x="393.2742" y="1101.3315">Campaign Active?</text><ellipse cx="442.9863" cy="1140.5234" fill="none" rx="11" ry="11" style="stroke:#222222;stroke-width:1;"/><ellipse cx="442.9863" cy="1140.5234" fill="#222222" rx="6" ry="6" style="stroke:#222222;stroke-width:1;"/><line style="stroke:#181818;stroke-width:1;" x1="442.9863" x2="442.9863" y1="30" y2="50"/><polygon fill="#181818" points="438.9863,40,442.9863,50,446.9863,40,442.9863,44" style="stroke:#181818;stroke-width:1;"/><line style="stroke:#181818;stroke-width:1;" x1="442.9863" x2="442.9863" y1="83.9688" y2="103.9688"/><polygon fill="#181818" points="438.9863,93.9688,442.9863,103.9688,446.9863,93.9688,442.9863,97.9688" style="stroke:#181818;stroke-width:1;"/><line style="stroke:#181818;stroke-width:1;" x1="442.9863" x2="442.9863" y1="244.1875" y2="290.75"/><polygon fill="#181818" points="438.9863,280.75,442.9863,290.75,446.9863,280.75,442.9863,284.75" style="stroke:#181818;stroke-width:1;"/><line style="stroke:#181818;stroke-width:1;" x1="442.9863" x2="442.9863" y1="547.7422" y2="567.7422"/><polygon fill="#181818" points="438.9863,557.7422,442.9863,567.7422,446.9863,557.7422,442.9863,561.7422" style="stroke:#181818;stroke-width:1;"/><line style="stroke:#181818;stroke-width:1;" x1="173.9092" x2="173.9092" y1="627.7109" y2="647.7109"/><polygon fill="#181818" points="169.9092,637.7109,173.9092,647.7109,177.9092,637.7109,173.9092,641.7109" style="stroke:#181818;stroke-width:1;"/><line style="stroke:#181818;stroke-width:1;" x1="480.8848" x2="480.8848" y1="627.7109" y2="647.7109"/><polygon fill="#181818" points="476.8848,637.7109,480.8848,647.7109,484.8848,637.7109,480.8848,641.7109" style="stroke:#181818;stroke-width:1;"/><line style="stroke:#181818;stroke-width:1;" x1="749.9619" x2="749.9619" y1="627.7109" y2="647.7109"/><polygon fill="#181818" points="745.9619,637.7109,749.9619,647.7109,753.9619,637.7109,749.9619,641.7109" style="stroke:#181818;stroke-width:1;"/><line style="stroke:#181818;stroke-width:1;" x1="173.9092" x2="173.9092" y1="681.6797" y2="701.6797"/><polygon fill="#181818" points="169.9092,691.6797,173.9092,701.6797,177.9092,691.6797,173.9092,695.6797" style="stroke:#181818;stroke-width:1;"/><line style="stroke:#181818;stroke-width:1;" x1="480.8848" x2="480.8848" y1="681.6797" y2="701.6797"/><polygon fill="#181818" points="476.8848,691.6797,480.8848,701.6797,484.8848,691.6797,480.8848,695.6797" style="stroke:#181818;stroke-width:1;"/><line style="stroke:#181818;stroke-width:1;" x1="749.9619" x2="749.9619" y1="681.6797" y2="701.6797"/><polygon fill="#181818" points="745.9619,691.6797,749.9619,701.6797,753.9619,691.6797,749.9619,695.6797" style="stroke:#181818;stroke-width:1;"/><line style="stroke:#181818;stroke-width:1;" x1="442.9863" x2="442.9863" y1="601.7109" y2="621.7109"/><polygon fill="#181818" points="438.9863,611.7109,442.9863,621.7109,446.9863,611.7109,442.9863,615.7109" style="stroke:#181818;stroke-width:1;"/><line style="stroke:#181818;stroke-width:1;" x1="442.9863" x2="442.9863" y1="707.6797" y2="727.6797"/><polygon fill="#181818" points="438.9863,717.6797,442.9863,727.6797,446.9863,717.6797,442.9863,721.6797" style="stroke:#181818;stroke-width:1;"/><line style="stroke:#181818;stroke-width:1;" x1="442.9863" x2="442.9863" y1="761.6484" y2="781.6484"/><polygon fill="#181818" points="438.9863,771.6484,442.9863,781.6484,446.9863,771.6484,442.9863,775.6484" style="stroke:#181818;stroke-width:1;"/><line style="stroke:#181818;stroke-width:1;" x1="442.9863" x2="442.9863" y1="815.6172" y2="835.6172"/><polygon fill="#181818" points="438.9863,825.6172,442.9863,835.6172,446.9863,825.6172,442.9863,829.6172" style="stroke:#181818;stroke-width:1;"/><line style="stroke:#181818;stroke-width:1;" x1="442.9863" x2="442.9863" y1="489.3711" y2="513.7734"/><polygon fill="#181818" points="438.9863,503.7734,442.9863,513.7734,446.9863,503.7734,442.9863,507.7734" style="stroke:#181818;stroke-width:1;"/><line style="stroke:#181818;stroke-width:1;" x1="514.8284" x2="884.9727" y1="477.3711" y2="477.3711"/><polygon fill="#181818" points="880.9727,689.1797,884.9727,699.1797,888.9727,689.1797,884.9727,693.1797" style="stroke:#181818;stroke-width:1;"/><line style="stroke:#181818;stroke-width:1;" x1="884.9727" x2="884.9727" y1="477.3711" y2="901.5859"/><line style="stroke:#181818;stroke-width:1;" x1="884.9727" x2="454.9863" y1="901.5859" y2="901.5859"/><polygon fill="#181818" points="464.9863,897.5859,454.9863,901.5859,464.9863,905.5859,460.9863,901.5859" style="stroke:#181818;stroke-width:1;"/><line style="stroke:#181818;stroke-width:1;" x1="442.9863" x2="442.9863" y1="869.5859" y2="889.5859"/><polygon fill="#181818" points="438.9863,879.5859,442.9863,889.5859,446.9863,879.5859,442.9863,883.5859" style="stroke:#181818;stroke-width:1;"/><line style="stroke:#181818;stroke-width:1;" x1="442.9863" x2="442.9863" y1="445.3711" y2="465.3711"/><polygon fill="#181818" points="438.9863,455.3711,442.9863,465.3711,446.9863,455.3711,442.9863,459.3711" style="stroke:#181818;stroke-width:1;"/><line style="stroke:#181818;stroke-width:1;" x1="442.9863" x2="442.9863" y1="387" y2="411.4023"/><polygon fill="#181818" points="438.9863,401.4023,442.9863,411.4023,446.9863,401.4023,442.9863,405.4023" style="stroke:#181818;stroke-width:1;"/><line style="stroke:#181818;stroke-width:1;" x1="534.1643" x2="902.9727" y1="375" y2="375"/><polygon fill="#181818" points="898.9727,654.6953,902.9727,664.6953,906.9727,654.6953,902.9727,658.6953" style="stroke:#181818;stroke-width:1;"/><line style="stroke:#181818;stroke-width:1;" x1="902.9727" x2="902.9727" y1="375" y2="945.5859"/><line style="stroke:#181818;stroke-width:1;" x1="902.9727" x2="454.9863" y1="945.5859" y2="945.5859"/><polygon fill="#181818" points="464.9863,941.5859,454.9863,945.5859,464.9863,949.5859,460.9863,945.5859" style="stroke:#181818;stroke-width:1;"/><line style="stroke:#181818;stroke-width:1;" x1="442.9863" x2="442.9863" y1="913.5859" y2="933.5859"/><polygon fill="#181818" points="438.9863,923.5859,442.9863,933.5859,446.9863,923.5859,442.9863,927.5859" style="stroke:#181818;stroke-width:1;"/><line style="stroke:#181818;stroke-width:1;" x1="442.9863" x2="442.9863" y1="324.7188" y2="363"/><polygon fill="#181818" points="438.9863,353,442.9863,363,446.9863,353,442.9863,357" style="stroke:#181818;stroke-width:1;"/><line style="stroke:#181818;stroke-width:1;" x1="442.9863" x2="442.9863" y1="957.5859" y2="977.5859"/><polygon fill="#181818" points="438.9863,967.5859,442.9863,977.5859,446.9863,967.5859,442.9863,971.5859" style="stroke:#181818;stroke-width:1;"/><line style="stroke:#181818;stroke-width:1;" x1="442.9863" x2="442.9863" y1="1011.5547" y2="1031.5547"/><polygon fill="#181818" points="438.9863,1021.5547,442.9863,1031.5547,446.9863,1021.5547,442.9863,1025.5547" style="stroke:#181818;stroke-width:1;"/><line style="stroke:#181818;stroke-width:1;" x1="442.9863" x2="442.9863" y1="181.9375" y2="210.2188"/><polygon fill="#181818" points="438.9863,200.2188,442.9863,210.2188,446.9863,200.2188,442.9863,204.2188" style="stroke:#181818;stroke-width:1;"/><line style="stroke:#181818;stroke-width:1;" x1="504.6985" x2="920.9727" y1="1097.5234" y2="1097.5234"/><polygon fill="#181818" points="916.9727,638.1328,920.9727,628.1328,924.9727,638.1328,920.9727,634.1328" style="stroke:#181818;stroke-width:1;"/><line style="stroke:#181818;stroke-width:1;" x1="920.9727" x2="920.9727" y1="169.9375" y2="1097.5234"/><line style="stroke:#181818;stroke-width:1;" x1="920.9727" x2="454.9863" y1="169.9375" y2="169.9375"/><polygon fill="#181818" points="464.9863,165.9375,454.9863,169.9375,464.9863,173.9375,460.9863,169.9375" style="stroke:#181818;stroke-width:1;"/><line style="stroke:#181818;stroke-width:1;" x1="442.9863" x2="442.9863" y1="1065.5234" y2="1085.5234"/><polygon fill="#181818" points="438.9863,1075.5234,442.9863,1085.5234,446.9863,1075.5234,442.9863,1079.5234" style="stroke:#181818;stroke-width:1;"/><line style="stroke:#181818;stroke-width:1;" x1="442.9863" x2="442.9863" y1="137.9375" y2="157.9375"/><polygon fill="#181818" points="438.9863,147.9375,442.9863,157.9375,446.9863,147.9375,442.9863,151.9375" style="stroke:#181818;stroke-width:1;"/><line style="stroke:#181818;stroke-width:1;" x1="442.9863" x2="442.9863" y1="1109.5234" y2="1129.5234"/><polygon fill="#181818" points="438.9863,1119.5234,442.9863,1129.5234,446.9863,1119.5234,442.9863,1123.5234" style="stroke:#181818;stroke-width:1;"/><!--SRC=[ZLDDRzim3BtxL_2O01iG3DZ5EHIPKHG1cZH8rkrCoBH3H9OCYKxZ_Vf9yMVN7dQnP8fyV7nFye9EaZJ3gaOk3PpYF-Nh97sscCFMi33g47OeLBQmqTeg5BPcdIIEQa990DADGTt-8SWQvyW8xD1TI22p9kUOxDSXorWXS5oUOmd0LpWuLWHN3xlDuljg-IMktrQhPNzyF6r1qvMqxmE_h0wjDKiB5KaedXqq5G565fvZb4n-xnUsaT_Z5NKJ9XW9ZWCTo1NMLMWKVShn-BA5cXpulg0FFzcW2gep1tvL18odGmdxopy47s-acYW4K56mOZAg_S2I2rXy40woCvgIyeSbo9aCB5hodK3fDW-DkMZXfHQkvYxj-BQ-vzm_4VT8E3e7UwByCyI0cQ5MZOvAxUdjdTjzmY6OZewcNZyT6i_pd7u9ibxwRQXxSgYeQBHkuKXv4tn_DJcvkfEVJJaWCldr306mH3OJpjOeH-XfnWt4mWyI2Ixz7yP62L-76QUIA5GdpL0S_PcDCMZmMkVtkpGyck1MmMNZtYlrRCj9fSx5aLLwYj1x6-pZReZ-A8IvIAOrcTgDME6DIWUL_aQMo33mlWbi-liFMQjqkCxT-uItCsk2nKZtFZuzB9F4Ywt_0W00]--></g></svg>