<svg xmlns="http://www.w3.org/2000/svg" xmlns:xlink="http://www.w3.org/1999/xlink" contentStyleType="text/css" data-diagram-type="CLASS" height="669px" preserveAspectRatio="none" style="width:901px;height:669px;background:#FFFFFF;" version="1.1" viewBox="0 0 901 669" width="901px" zoomAndPan="magnify"><defs/><g><!--class campaigns--><g class="entity" data-entity="campaigns" data-source-line="1" data-uid="ent0002" id="entity_campaigns"><rect fill="#F1F1F1" height="194.6719" rx="2.5" ry="2.5" style="stroke:#181818;stroke-width:0.5;" width="233.3477" x="350.1" y="7"/><ellipse cx="375.6214" cy="23" fill="#ADD1B2" rx="11" ry="11" style="stroke:#181818;stroke-width:1;"/><path d="M379.7308,29 L372.012,29 L372.012,16.6094 L379.7308,16.6094 L379.7308,18.7656 L374.4651,18.7656 L374.4651,21.4375 L379.2308,21.4375 L379.2308,23.5938 L374.4651,23.5938 L374.4651,26.8438 L379.7308,26.8438 L379.7308,29 Z " fill="#000000"/><text fill="#000000" font-family="sans-serif" font-size="14" lengthAdjust="spacing" textLength="177.9668" x="391.9595" y="27.8467">accumulation_campaigns</text><line style="stroke:#181818;stroke-width:0.5;" x1="351.1" x2="582.4477" y1="39" y2="39"/><ellipse cx="361.1" cy="52.6484" fill="#000000" rx="3" ry="3" style="stroke:#000000;stroke-width:1;"/><text fill="#000000" font-family="sans-serif" font-size="14" lengthAdjust="spacing" textLength="74.1289" x="370.1" y="55.9951">id : BIGINT</text><line style="stroke:#181818;stroke-width:1;" x1="351.1" x2="582.4477" y1="63.2969" y2="63.2969"/><ellipse cx="361.1" cy="76.9453" fill="#000000" rx="3" ry="3" style="stroke:#000000;stroke-width:1;"/><text fill="#000000" font-family="sans-serif" font-size="14" lengthAdjust="spacing" textLength="159.4551" x="370.1" y="80.292">name : VARCHAR(100)</text><ellipse cx="361.1" cy="93.2422" fill="#000000" rx="3" ry="3" style="stroke:#000000;stroke-width:1;"/><text fill="#000000" font-family="sans-serif" font-size="14" lengthAdjust="spacing" textLength="162.5654" x="370.1" y="96.5889">campaign_type : ENUM</text><ellipse cx="361.1" cy="109.5391" fill="#000000" rx="3" ry="3" style="stroke:#000000;stroke-width:1;"/><text fill="#000000" font-family="sans-serif" font-size="14" lengthAdjust="spacing" textLength="195.3164" x="370.1" y="112.8857">trading_pair : VARCHAR(20)</text><ellipse cx="361.1" cy="125.8359" fill="#000000" rx="3" ry="3" style="stroke:#000000;stroke-width:1;"/><text fill="#000000" font-family="sans-serif" font-size="14" lengthAdjust="spacing" textLength="207.3477" x="370.1" y="129.1826">total_budget : DECIMAL(18,8)</text><ellipse cx="361.1" cy="142.1328" fill="#000000" rx="3" ry="3" style="stroke:#000000;stroke-width:1;"/><text fill="#000000" font-family="sans-serif" font-size="14" lengthAdjust="spacing" textLength="98.2803" x="370.1" y="145.4795">status : ENUM</text><text fill="#000000" font-family="sans-serif" font-size="14" lengthAdjust="spacing" textLength="186.9834" x="370.1" y="161.7764">accumulation_goals : JSON</text><text fill="#000000" font-family="sans-serif" font-size="14" lengthAdjust="spacing" textLength="181.5352" x="370.1" y="178.0732">strategy_allocation : JSON</text><text fill="#000000" font-family="sans-serif" font-size="14" lengthAdjust="spacing" textLength="169.4629" x="370.1" y="194.3701">created_at : TIMESTAMP</text></g><!--class strategies--><g class="entity" data-entity="strategies" data-source-line="14" data-uid="ent0003" id="entity_strategies"><rect fill="#F1F1F1" height="162.0781" rx="2.5" ry="2.5" style="stroke:#181818;stroke-width:0.5;" width="253.3975" x="618.07" y="23.3"/><ellipse cx="676.8864" cy="39.3" fill="#ADD1B2" rx="11" ry="11" style="stroke:#181818;stroke-width:1;"/><path d="M680.9958,45.3 L673.277,45.3 L673.277,32.9094 L680.9958,32.9094 L680.9958,35.0656 L675.7302,35.0656 L675.7302,37.7375 L680.4958,37.7375 L680.4958,39.8937 L675.7302,39.8937 L675.7302,43.1437 L680.9958,43.1437 L680.9958,45.3 Z " fill="#000000"/><text fill="#000000" font-family="sans-serif" font-size="14" lengthAdjust="spacing" textLength="127.2646" x="697.3864" y="44.1467">trading_strategies</text><line style="stroke:#181818;stroke-width:0.5;" x1="619.07" x2="870.4675" y1="55.3" y2="55.3"/><ellipse cx="629.07" cy="68.9484" fill="#000000" rx="3" ry="3" style="stroke:#000000;stroke-width:1;"/><text fill="#000000" font-family="sans-serif" font-size="14" lengthAdjust="spacing" textLength="74.1289" x="638.07" y="72.2951">id : BIGINT</text><line style="stroke:#181818;stroke-width:1;" x1="619.07" x2="870.4675" y1="79.5969" y2="79.5969"/><ellipse cx="629.07" cy="93.2453" fill="#000000" rx="3" ry="3" style="stroke:#000000;stroke-width:1;"/><text fill="#000000" font-family="sans-serif" font-size="14" lengthAdjust="spacing" textLength="159.4551" x="638.07" y="96.592">name : VARCHAR(100)</text><ellipse cx="629.07" cy="109.5422" fill="#000000" rx="3" ry="3" style="stroke:#000000;stroke-width:1;"/><text fill="#000000" font-family="sans-serif" font-size="14" lengthAdjust="spacing" textLength="151.9287" x="638.07" y="112.8889">strategy_type : ENUM</text><ellipse cx="629.07" cy="125.8391" fill="#000000" rx="3" ry="3" style="stroke:#000000;stroke-width:1;"/><text fill="#000000" font-family="sans-serif" font-size="14" lengthAdjust="spacing" textLength="162.1211" x="638.07" y="129.1857">version : VARCHAR(20)</text><ellipse cx="629.07" cy="142.1359" fill="#000000" rx="3" ry="3" style="stroke:#000000;stroke-width:1;"/><text fill="#000000" font-family="sans-serif" font-size="14" lengthAdjust="spacing" textLength="142.6934" x="638.07" y="145.4826">is_active : BOOLEAN</text><text fill="#000000" font-family="sans-serif" font-size="14" lengthAdjust="spacing" textLength="131.3389" x="638.07" y="161.7795">base_config : JSON</text><text fill="#000000" font-family="sans-serif" font-size="14" lengthAdjust="spacing" textLength="227.3975" x="638.07" y="178.0764">supported_position_types : JSON</text></g><!--class camp_strat--><g class="entity" data-entity="camp_strat" data-source-line="25" data-uid="ent0004" id="entity_camp_strat"><rect fill="#F1F1F1" height="145.7813" rx="2.5" ry="2.5" style="stroke:#181818;stroke-width:0.5;" width="264.7383" x="566.4" y="286.12"/><ellipse cx="621.5523" cy="302.12" fill="#ADD1B2" rx="11" ry="11" style="stroke:#181818;stroke-width:1;"/><path d="M625.6617,308.12 L617.943,308.12 L617.943,295.7294 L625.6617,295.7294 L625.6617,297.8856 L620.3961,297.8856 L620.3961,300.5575 L625.1617,300.5575 L625.1617,302.7138 L620.3961,302.7138 L620.3961,305.9638 L625.6617,305.9638 L625.6617,308.12 Z " fill="#000000"/><text fill="#000000" font-family="sans-serif" font-size="14" lengthAdjust="spacing" textLength="145.9336" x="642.0523" y="306.9667">campaign_strategies</text><line style="stroke:#181818;stroke-width:0.5;" x1="567.4" x2="830.1383" y1="318.12" y2="318.12"/><ellipse cx="577.4" cy="331.7684" fill="#000000" rx="3" ry="3" style="stroke:#000000;stroke-width:1;"/><text fill="#000000" font-family="sans-serif" font-size="14" lengthAdjust="spacing" textLength="74.1289" x="586.4" y="335.1151">id : BIGINT</text><line style="stroke:#181818;stroke-width:1;" x1="567.4" x2="830.1383" y1="342.4169" y2="342.4169"/><ellipse cx="577.4" cy="356.0653" fill="#000000" rx="3" ry="3" style="stroke:#000000;stroke-width:1;"/><text fill="#000000" font-family="sans-serif" font-size="14" lengthAdjust="spacing" textLength="150.1582" x="586.4" y="359.412">campaign_id : BIGINT</text><ellipse cx="577.4" cy="372.3622" fill="#000000" rx="3" ry="3" style="stroke:#000000;stroke-width:1;"/><text fill="#000000" font-family="sans-serif" font-size="14" lengthAdjust="spacing" textLength="139.5215" x="586.4" y="375.7089">strategy_id : BIGINT</text><ellipse cx="577.4" cy="388.6591" fill="#000000" rx="3" ry="3" style="stroke:#000000;stroke-width:1;"/><text fill="#000000" font-family="sans-serif" font-size="14" lengthAdjust="spacing" textLength="238.7383" x="586.4" y="392.0057">allocation_percent : DECIMAL(5,2)</text><ellipse cx="577.4" cy="404.9559" fill="#000000" rx="3" ry="3" style="stroke:#000000;stroke-width:1;"/><text fill="#000000" font-family="sans-serif" font-size="14" lengthAdjust="spacing" textLength="156.4814" x="586.4" y="408.3026">is_enabled : BOOLEAN</text><text fill="#000000" font-family="sans-serif" font-size="14" lengthAdjust="spacing" textLength="196.4854" x="586.4" y="424.5995">activation_conditions : JSON</text></g><!--class positions--><g class="entity" data-entity="positions" data-source-line="35" data-uid="ent0005" id="entity_positions"><rect fill="#F1F1F1" height="194.6719" rx="2.5" ry="2.5" style="stroke:#181818;stroke-width:0.5;" width="243.8545" x="216.84" y="261.68"/><ellipse cx="274.4635" cy="277.68" fill="#ADD1B2" rx="11" ry="11" style="stroke:#181818;stroke-width:1;"/><path d="M278.5729,283.68 L270.8542,283.68 L270.8542,271.2894 L278.5729,271.2894 L278.5729,273.4456 L273.3073,273.4456 L273.3073,276.1175 L278.0729,276.1175 L278.0729,278.2738 L273.3073,278.2738 L273.3073,281.5238 L278.5729,281.5238 L278.5729,283.68 Z " fill="#000000"/><text fill="#000000" font-family="sans-serif" font-size="14" lengthAdjust="spacing" textLength="120.1074" x="294.9635" y="282.5267">trading_positions</text><line style="stroke:#181818;stroke-width:0.5;" x1="217.84" x2="459.6945" y1="293.68" y2="293.68"/><ellipse cx="227.84" cy="307.3284" fill="#000000" rx="3" ry="3" style="stroke:#000000;stroke-width:1;"/><text fill="#000000" font-family="sans-serif" font-size="14" lengthAdjust="spacing" textLength="74.1289" x="236.84" y="310.6751">id : BIGINT</text><line style="stroke:#181818;stroke-width:1;" x1="217.84" x2="459.6945" y1="317.9769" y2="317.9769"/><ellipse cx="227.84" cy="331.6253" fill="#000000" rx="3" ry="3" style="stroke:#000000;stroke-width:1;"/><text fill="#000000" font-family="sans-serif" font-size="14" lengthAdjust="spacing" textLength="150.1582" x="236.84" y="334.972">campaign_id : BIGINT</text><ellipse cx="227.84" cy="347.9222" fill="#000000" rx="3" ry="3" style="stroke:#000000;stroke-width:1;"/><text fill="#000000" font-family="sans-serif" font-size="14" lengthAdjust="spacing" textLength="139.5215" x="236.84" y="351.2689">strategy_id : BIGINT</text><ellipse cx="227.84" cy="364.2191" fill="#000000" rx="3" ry="3" style="stroke:#000000;stroke-width:1;"/><text fill="#000000" font-family="sans-serif" font-size="14" lengthAdjust="spacing" textLength="148.9893" x="236.84" y="367.5657">position_type : ENUM</text><ellipse cx="227.84" cy="380.5159" fill="#000000" rx="3" ry="3" style="stroke:#000000;stroke-width:1;"/><text fill="#000000" font-family="sans-serif" font-size="14" lengthAdjust="spacing" textLength="195.3164" x="236.84" y="383.8626">trading_pair : VARCHAR(20)</text><ellipse cx="227.84" cy="396.8128" fill="#000000" rx="3" ry="3" style="stroke:#000000;stroke-width:1;"/><text fill="#000000" font-family="sans-serif" font-size="14" lengthAdjust="spacing" textLength="98.2803" x="236.84" y="400.1595">status : ENUM</text><text fill="#000000" font-family="sans-serif" font-size="14" lengthAdjust="spacing" textLength="217.6563" x="236.84" y="416.4564">total_invested : DECIMAL(18,8)</text><text fill="#000000" font-family="sans-serif" font-size="14" lengthAdjust="spacing" textLength="217.8545" x="236.84" y="432.7532">average_price : DECIMAL(18,8)</text><text fill="#000000" font-family="sans-serif" font-size="14" lengthAdjust="spacing" textLength="125.3848" x="236.84" y="449.0501">grid_config : JSON</text></g><!--class grid--><g class="entity" data-entity="grid" data-source-line="48" data-uid="ent0006" id="entity_grid"><rect fill="#F1F1F1" height="145.7813" rx="2.5" ry="2.5" style="stroke:#181818;stroke-width:0.5;" width="179.542" x="7" y="516.35"/><ellipse cx="55.019" cy="532.35" fill="#ADD1B2" rx="11" ry="11" style="stroke:#181818;stroke-width:1;"/><path d="M59.1284,538.35 L51.4097,538.35 L51.4097,525.9594 L59.1284,525.9594 L59.1284,528.1156 L53.8628,528.1156 L53.8628,530.7875 L58.6284,530.7875 L58.6284,532.9438 L53.8628,532.9438 L53.8628,536.1938 L59.1284,536.1938 L59.1284,538.35 Z " fill="#000000"/><text fill="#000000" font-family="sans-serif" font-size="14" lengthAdjust="spacing" textLength="75.0039" x="75.519" y="537.1967">grid_levels</text><line style="stroke:#181818;stroke-width:0.5;" x1="8" x2="185.542" y1="548.35" y2="548.35"/><ellipse cx="18" cy="561.9984" fill="#000000" rx="3" ry="3" style="stroke:#000000;stroke-width:1;"/><text fill="#000000" font-family="sans-serif" font-size="14" lengthAdjust="spacing" textLength="74.1289" x="27" y="565.3451">id : BIGINT</text><line style="stroke:#181818;stroke-width:1;" x1="8" x2="185.542" y1="572.6469" y2="572.6469"/><ellipse cx="18" cy="586.2953" fill="#000000" rx="3" ry="3" style="stroke:#000000;stroke-width:1;"/><text fill="#000000" font-family="sans-serif" font-size="14" lengthAdjust="spacing" textLength="136.582" x="27" y="589.642">position_id : BIGINT</text><ellipse cx="18" cy="602.5922" fill="#000000" rx="3" ry="3" style="stroke:#000000;stroke-width:1;"/><text fill="#000000" font-family="sans-serif" font-size="14" lengthAdjust="spacing" textLength="115.6094" x="27" y="605.9389">level_index : INT</text><ellipse cx="18" cy="618.8891" fill="#000000" rx="3" ry="3" style="stroke:#000000;stroke-width:1;"/><text fill="#000000" font-family="sans-serif" font-size="14" lengthAdjust="spacing" textLength="153.542" x="27" y="622.2357">price : DECIMAL(18,8)</text><ellipse cx="18" cy="635.1859" fill="#000000" rx="3" ry="3" style="stroke:#000000;stroke-width:1;"/><text fill="#000000" font-family="sans-serif" font-size="14" lengthAdjust="spacing" textLength="83.9453" x="27" y="638.5326">side : ENUM</text><ellipse cx="18" cy="651.4828" fill="#000000" rx="3" ry="3" style="stroke:#000000;stroke-width:1;"/><text fill="#000000" font-family="sans-serif" font-size="14" lengthAdjust="spacing" textLength="98.2803" x="27" y="654.8295">status : ENUM</text></g><!--class dca--><g class="entity" data-entity="dca" data-source-line="58" data-uid="ent0007" id="entity_dca"><rect fill="#F1F1F1" height="145.7813" rx="2.5" ry="2.5" style="stroke:#181818;stroke-width:0.5;" width="233.8193" x="221.86" y="516.35"/><ellipse cx="298.1456" cy="532.35" fill="#ADD1B2" rx="11" ry="11" style="stroke:#181818;stroke-width:1;"/><path d="M302.255,538.35 L294.5363,538.35 L294.5363,525.9594 L302.255,525.9594 L302.255,528.1156 L296.9894,528.1156 L296.9894,530.7875 L301.755,530.7875 L301.755,532.9438 L296.9894,532.9438 L296.9894,536.1938 L302.255,536.1938 L302.255,538.35 Z " fill="#000000"/><text fill="#000000" font-family="sans-serif" font-size="14" lengthAdjust="spacing" textLength="72.748" x="318.6456" y="537.1967">dca_levels</text><line style="stroke:#181818;stroke-width:0.5;" x1="222.86" x2="454.6793" y1="548.35" y2="548.35"/><ellipse cx="232.86" cy="561.9984" fill="#000000" rx="3" ry="3" style="stroke:#000000;stroke-width:1;"/><text fill="#000000" font-family="sans-serif" font-size="14" lengthAdjust="spacing" textLength="74.1289" x="241.86" y="565.3451">id : BIGINT</text><line style="stroke:#181818;stroke-width:1;" x1="222.86" x2="454.6793" y1="572.6469" y2="572.6469"/><ellipse cx="232.86" cy="586.2953" fill="#000000" rx="3" ry="3" style="stroke:#000000;stroke-width:1;"/><text fill="#000000" font-family="sans-serif" font-size="14" lengthAdjust="spacing" textLength="136.582" x="241.86" y="589.642">position_id : BIGINT</text><ellipse cx="232.86" cy="602.5922" fill="#000000" rx="3" ry="3" style="stroke:#000000;stroke-width:1;"/><text fill="#000000" font-family="sans-serif" font-size="14" lengthAdjust="spacing" textLength="70.0615" x="241.86" y="605.9389">level : INT</text><ellipse cx="232.86" cy="618.8891" fill="#000000" rx="3" ry="3" style="stroke:#000000;stroke-width:1;"/><text fill="#000000" font-family="sans-serif" font-size="14" lengthAdjust="spacing" textLength="207.8193" x="241.86" y="622.2357">trigger_price : DECIMAL(18,8)</text><ellipse cx="232.86" cy="635.1859" fill="#000000" rx="3" ry="3" style="stroke:#000000;stroke-width:1;"/><text fill="#000000" font-family="sans-serif" font-size="14" lengthAdjust="spacing" textLength="83.9453" x="241.86" y="638.5326">side : ENUM</text><ellipse cx="232.86" cy="651.4828" fill="#000000" rx="3" ry="3" style="stroke:#000000;stroke-width:1;"/><text fill="#000000" font-family="sans-serif" font-size="14" lengthAdjust="spacing" textLength="98.2803" x="241.86" y="654.8295">status : ENUM</text></g><!--class stops--><g class="entity" data-entity="stops" data-source-line="68" data-uid="ent0008" id="entity_stops"><rect fill="#F1F1F1" height="145.7813" rx="2.5" ry="2.5" style="stroke:#181818;stroke-width:0.5;" width="176.1582" x="490.69" y="516.35"/><ellipse cx="528.5468" cy="532.35" fill="#ADD1B2" rx="11" ry="11" style="stroke:#181818;stroke-width:1;"/><path d="M532.6562,538.35 L524.9375,538.35 L524.9375,525.9594 L532.6562,525.9594 L532.6562,528.1156 L527.3906,528.1156 L527.3906,530.7875 L532.1562,530.7875 L532.1562,532.9438 L527.3906,532.9438 L527.3906,536.1938 L532.6562,536.1938 L532.6562,538.35 Z " fill="#000000"/><text fill="#000000" font-family="sans-serif" font-size="14" lengthAdjust="spacing" textLength="93.3652" x="547.6261" y="537.1967">stop_controls</text><line style="stroke:#181818;stroke-width:0.5;" x1="491.69" x2="665.8482" y1="548.35" y2="548.35"/><ellipse cx="501.69" cy="561.9984" fill="#000000" rx="3" ry="3" style="stroke:#000000;stroke-width:1;"/><text fill="#000000" font-family="sans-serif" font-size="14" lengthAdjust="spacing" textLength="74.1289" x="510.69" y="565.3451">id : BIGINT</text><line style="stroke:#181818;stroke-width:1;" x1="491.69" x2="665.8482" y1="572.6469" y2="572.6469"/><ellipse cx="501.69" cy="586.2953" fill="#000000" rx="3" ry="3" style="stroke:#000000;stroke-width:1;"/><text fill="#000000" font-family="sans-serif" font-size="14" lengthAdjust="spacing" textLength="133.5537" x="510.69" y="589.642">stop_scope : ENUM</text><ellipse cx="501.69" cy="602.5922" fill="#000000" rx="3" ry="3" style="stroke:#000000;stroke-width:1;"/><text fill="#000000" font-family="sans-serif" font-size="14" lengthAdjust="spacing" textLength="150.1582" x="510.69" y="605.9389">campaign_id : BIGINT</text><ellipse cx="501.69" cy="618.8891" fill="#000000" rx="3" ry="3" style="stroke:#000000;stroke-width:1;"/><text fill="#000000" font-family="sans-serif" font-size="14" lengthAdjust="spacing" textLength="139.5215" x="510.69" y="622.2357">strategy_id : BIGINT</text><ellipse cx="501.69" cy="635.1859" fill="#000000" rx="3" ry="3" style="stroke:#000000;stroke-width:1;"/><text fill="#000000" font-family="sans-serif" font-size="14" lengthAdjust="spacing" textLength="123.7715" x="510.69" y="638.5326">stop_type : ENUM</text><ellipse cx="501.69" cy="651.4828" fill="#000000" rx="3" ry="3" style="stroke:#000000;stroke-width:1;"/><text fill="#000000" font-family="sans-serif" font-size="14" lengthAdjust="spacing" textLength="98.2803" x="510.69" y="654.8295">status : ENUM</text></g><!--link campaigns to camp_strat--><g class="link" data-entity-1="campaigns" data-entity-2="camp_strat" data-source-line="78" data-uid="lnk9" id="link_campaigns_camp_strat"><path codeLine="78" d="M560.8817,207.8418 C586.4717,235.7018 596.3445,246.4626 620.3145,272.5626" fill="none" id="campaigns-camp_strat" style="stroke:#181818;stroke-width:1;"/><line style="stroke:#181818;stroke-width:1;" x1="555.23" x2="561.1218" y1="207.6018" y2="202.19"/><line style="stroke:#181818;stroke-width:1;" x1="557.2594" x2="563.1512" y1="209.8112" y2="204.3994"/><line style="stroke:#181818;stroke-width:1;" x1="560.8817" x2="555.47" y1="207.8418" y2="201.95"/><line style="stroke:#181818;stroke-width:1;" x1="627.0787" x2="636.9091" y1="279.9278" y2="281.7615"/><line style="stroke:#181818;stroke-width:1;" x1="627.0787" x2="628.0709" y1="279.9278" y2="289.8785"/><line style="stroke:#181818;stroke-width:1;" x1="627.0787" x2="632.49" y1="279.9278" y2="285.82"/><ellipse cx="623.0202" cy="275.5087" fill="none" rx="4" ry="4" style="stroke:#181818;stroke-width:1;"/></g><!--link strategies to camp_strat--><g class="link" data-entity-1="strategies" data-entity-2="camp_strat" data-source-line="79" data-uid="lnk10" id="link_strategies_camp_strat"><path codeLine="79" d="M728.7168,193.5106 C722.8768,225.5806 720.8644,236.6712 715.1744,267.9212" fill="none" id="strategies-camp_strat" style="stroke:#181818;stroke-width:1;"/><line style="stroke:#181818;stroke-width:1;" x1="725.4981" x2="733.3687" y1="188.8587" y2="190.2919"/><line style="stroke:#181818;stroke-width:1;" x1="724.9606" x2="732.8312" y1="191.8101" y2="193.2434"/><line style="stroke:#181818;stroke-width:1;" x1="728.7168" x2="730.15" y1="193.5106" y2="185.64"/><line style="stroke:#181818;stroke-width:1;" x1="713.3831" x2="717.8529" y1="277.7594" y2="286.7048"/><line style="stroke:#181818;stroke-width:1;" x1="713.3831" x2="706.0471" y1="277.7594" y2="284.5552"/><line style="stroke:#181818;stroke-width:1;" x1="713.3831" x2="711.95" y1="277.7594" y2="285.63"/><ellipse cx="714.4579" cy="271.8565" fill="none" rx="4" ry="4" style="stroke:#181818;stroke-width:1;"/></g><!--link campaigns to positions--><g class="link" data-entity-1="campaigns" data-entity-2="positions" data-source-line="80" data-uid="lnk11" id="link_campaigns_positions"><path codeLine="80" d="M414.2143,209.0863 C404.3343,228.5863 405.6954,225.9034 395.8154,245.4034" fill="none" id="campaigns-positions" style="stroke:#181818;stroke-width:1;"/><line style="stroke:#181818;stroke-width:1;" x1="412.454" x2="419.5903" y1="203.7103" y2="207.326"/><line style="stroke:#181818;stroke-width:1;" x1="411.0981" x2="418.2344" y1="206.3864" y2="210.0021"/><line style="stroke:#181818;stroke-width:1;" x1="414.2143" x2="417.83" y1="209.0863" y2="201.95"/><line style="stroke:#181818;stroke-width:1;" x1="391.2957" x2="393.0322" y1="254.3237" y2="264.1718"/><line style="stroke:#181818;stroke-width:1;" x1="391.2957" x2="382.3278" y1="254.3237" y2="258.7482"/><line style="stroke:#181818;stroke-width:1;" x1="391.2957" x2="387.68" y1="254.3237" y2="261.46"/><ellipse cx="394.0075" cy="248.9715" fill="none" rx="4" ry="4" style="stroke:#181818;stroke-width:1;"/></g><!--link strategies to positions--><g class="link" data-entity-1="strategies" data-entity-2="positions" data-source-line="81" data-uid="lnk12" id="link_strategies_positions"><path codeLine="81" d="M618.9335,190.0816 C610.5535,195.5316 608.91,196.53 600.77,201.68 C555.55,230.27 520.7139,251.4514 476.3639,277.7414" fill="none" id="strategies-positions" style="stroke:#181818;stroke-width:1;"/><line style="stroke:#181818;stroke-width:1;" x1="620.106" x2="624.4676" y1="184.5476" y2="191.254"/><line style="stroke:#181818;stroke-width:1;" x1="617.5911" x2="621.9527" y1="186.1832" y2="192.8896"/><line style="stroke:#181818;stroke-width:1;" x1="618.9335" x2="625.64" y1="190.0816" y2="185.72"/><line style="stroke:#181818;stroke-width:1;" x1="467.7618" x2="463.9395" y1="282.8406" y2="292.0813"/><line style="stroke:#181818;stroke-width:1;" x1="467.7618" x2="457.8205" y1="282.8406" y2="281.7587"/><line style="stroke:#181818;stroke-width:1;" x1="467.7618" x2="460.88" y1="282.8406" y2="286.92"/><ellipse cx="472.9231" cy="279.7811" fill="none" rx="4" ry="4" style="stroke:#181818;stroke-width:1;"/></g><!--link positions to grid--><g class="link" data-entity-1="positions" data-entity-2="grid" data-source-line="82" data-uid="lnk13" id="link_positions_grid"><path codeLine="82" d="M230.3193,462.2881 C209.3193,482.0881 206.4843,484.7693 186.5843,503.5393" fill="none" id="positions-grid" style="stroke:#181818;stroke-width:1;"/><line style="stroke:#181818;stroke-width:1;" x1="230.4856" x2="235.9737" y1="456.6337" y2="462.4544"/><line style="stroke:#181818;stroke-width:1;" x1="228.3028" x2="233.7909" y1="458.6917" y2="464.5124"/><line style="stroke:#181818;stroke-width:1;" x1="230.3193" x2="236.14" y1="462.2881" y2="456.8"/><line style="stroke:#181818;stroke-width:1;" x1="179.3097" x2="177.6069" y1="510.4008" y2="520.2548"/><line style="stroke:#181818;stroke-width:1;" x1="179.3097" x2="169.3731" y1="510.4008" y2="511.5252"/><line style="stroke:#181818;stroke-width:1;" x1="179.3097" x2="173.49" y1="510.4008" y2="515.89"/><ellipse cx="183.6744" cy="506.2839" fill="none" rx="4" ry="4" style="stroke:#181818;stroke-width:1;"/></g><!--link positions to dca--><g class="link" data-entity-1="positions" data-entity-2="dca" data-source-line="83" data-uid="lnk14" id="link_positions_dca"><path codeLine="83" d="M338.77,464.8 C338.77,484.6 338.77,479.12 338.77,497.89" fill="none" id="positions-dca" style="stroke:#181818;stroke-width:1;"/><line style="stroke:#181818;stroke-width:1;" x1="334.77" x2="342.77" y1="460.8" y2="460.8"/><line style="stroke:#181818;stroke-width:1;" x1="334.77" x2="342.77" y1="463.8" y2="463.8"/><line style="stroke:#181818;stroke-width:1;" x1="338.77" x2="338.77" y1="464.8" y2="456.8"/><line style="stroke:#181818;stroke-width:1;" x1="338.77" x2="344.77" y1="507.89" y2="515.89"/><line style="stroke:#181818;stroke-width:1;" x1="338.77" x2="332.77" y1="507.89" y2="515.89"/><line style="stroke:#181818;stroke-width:1;" x1="338.77" x2="338.77" y1="507.89" y2="515.89"/><ellipse cx="338.77" cy="501.89" fill="none" rx="4" ry="4" style="stroke:#181818;stroke-width:1;"/></g><!--link campaigns to stops--><g class="link" data-entity-1="campaigns" data-entity-2="stops" data-source-line="84" data-uid="lnk15" id="link_campaigns_stops"><path codeLine="84" d="M490.9772,209.6932 C512.4872,302.4532 538.6234,415.1454 557.9934,498.6654" fill="none" id="campaigns-stops" style="stroke:#181818;stroke-width:1;"/><line style="stroke:#181818;stroke-width:1;" x1="486.177" x2="493.9702" y1="206.7002" y2="204.893"/><line style="stroke:#181818;stroke-width:1;" x1="486.8547" x2="494.6479" y1="209.6226" y2="207.8155"/><line style="stroke:#181818;stroke-width:1;" x1="490.9772" x2="489.17" y1="209.6932" y2="201.9"/><line style="stroke:#181818;stroke-width:1;" x1="560.2526" x2="567.9049" y1="508.4068" y2="514.8445"/><line style="stroke:#181818;stroke-width:1;" x1="560.2526" x2="556.2151" y1="508.4068" y2="517.5555"/><line style="stroke:#181818;stroke-width:1;" x1="560.2526" x2="562.06" y1="508.4068" y2="516.2"/><ellipse cx="558.8971" cy="502.562" fill="none" rx="4" ry="4" style="stroke:#181818;stroke-width:1;"/></g><!--link strategies to stops--><g class="link" data-entity-1="strategies" data-entity-2="stops" data-source-line="85" data-uid="lnk16" id="link_strategies_stops"><path codeLine="85" d="M815.4236,192.1691 C830.8636,215.3591 840.71,235 848.77,261.68 C873.8,344.5 894.6,382.96 848.77,456.35 C809.26,519.63 746.978,548.5234 684.388,565.9834" fill="none" id="strategies-stops" style="stroke:#181818;stroke-width:1;"/><line style="stroke:#181818;stroke-width:1;" x1="809.8773" x2="816.5363" y1="191.0563" y2="186.6227"/><line style="stroke:#181818;stroke-width:1;" x1="811.5399" x2="818.1989" y1="193.5535" y2="189.1199"/><line style="stroke:#181818;stroke-width:1;" x1="815.4236" x2="810.99" y1="192.1691" y2="185.51"/><line style="stroke:#181818;stroke-width:1;" x1="674.7558" x2="668.6622" y1="568.6704" y2="576.5993"/><line style="stroke:#181818;stroke-width:1;" x1="674.7558" x2="665.4378" y1="568.6704" y2="565.0407"/><line style="stroke:#181818;stroke-width:1;" x1="674.7558" x2="667.05" y1="568.6704" y2="570.82"/><ellipse cx="680.5351" cy="567.0582" fill="none" rx="4" ry="4" style="stroke:#181818;stroke-width:1;"/></g><!--link positions to stops--><g class="link" data-entity-1="positions" data-entity-2="stops" data-source-line="86" data-uid="lnk17" id="link_positions_stops"><path codeLine="86" d="M446.3484,462.3117 C467.1784,482.1117 469.9056,484.7166 489.6456,503.4866" fill="none" id="positions-stops" style="stroke:#181818;stroke-width:1;"/><line style="stroke:#181818;stroke-width:1;" x1="440.6934" x2="446.205" y1="462.455" y2="456.6566"/><line style="stroke:#181818;stroke-width:1;" x1="442.8678" x2="448.3794" y1="464.5219" y2="458.7235"/><line style="stroke:#181818;stroke-width:1;" x1="446.3484" x2="440.55" y1="462.3117" y2="456.8"/><line style="stroke:#181818;stroke-width:1;" x1="496.8925" x2="506.8245" y1="510.3774" y2="511.5419"/><line style="stroke:#181818;stroke-width:1;" x1="496.8925" x2="498.5555" y1="510.3774" y2="520.2381"/><line style="stroke:#181818;stroke-width:1;" x1="496.8925" x2="502.69" y1="510.3774" y2="515.89"/><ellipse cx="492.5444" cy="506.2429" fill="none" rx="4" ry="4" style="stroke:#181818;stroke-width:1;"/></g><!--SRC=[hLJHJYCX57sVho0-kHkRgCacPjz6jz4QsnhjxYkXS2KaKo30DDke_xx0J1bcfjj4uoFtS2_d70w0TCBjq0cXjDxK5N52IKp9HXF1fJr1nAAqGgy5Gj-HOEWdkfxTpXOhlvvCOb6I3VZod_BfvgvyEhquF_yMw_jcx7OwR9WkViyZu0nXGdBiKPCrNhPzJZbIuNNDE3WF_vhUpERbm-d5rTbLiy4wuchRJUm9u8fK0Rj_NYuyPlrX3lWEawfID6xfG6h0WmoJSCvgDfy-hyhvO_5U5D1wiwVQZX7G-D8jFsDCuZGqPWl6DWI7dWYB2NLY6xPVBvSFqpBmNnCBc2hv8dYckDPQcI1BAokY9-6Sv4ccBjtGG5weDxLZyb9t7ytq3O7k3h06GpsDx7v_d5qchI39kWBM4nlrjo5LaaLbXqIbTBNg6qbfzRMAUXP_8EF323UP5t8BraNTmzGJdmt20MiZA1p0kH5i48NCauXMi8MgSIEiZncHP0trnXcU9uE_7aWk_8UKrobOpvQ-xemXeoGdw9UVvvSnSqPm3WP_0KFhb0uEEwEg_I-WzD4ynHPBLJyQ7qzPd3DCs8Xezrc_lKqcwZLxnaNsOOt1KMDwB0VwEgnxKYqKKZMk-giSdn2jEp2zgOzcnF8_]--></g></svg>