<svg xmlns="http://www.w3.org/2000/svg" xmlns:xlink="http://www.w3.org/1999/xlink" contentStyleType="text/css" data-diagram-type="ACTIVITY" height="1573px" preserveAspectRatio="none" style="width:417px;height:1573px;background:#FFFFFF;" version="1.1" viewBox="0 0 417 1573" width="417px" zoomAndPan="magnify"><defs/><g><ellipse cx="135.3779" cy="20" fill="#222222" rx="10" ry="10" style="stroke:#222222;stroke-width:1;"/><rect fill="#F1F1F1" height="33.9688" rx="12.5" ry="12.5" style="stroke:#181818;stroke-width:0.5;" width="154.4492" x="58.1533" y="50"/><text fill="#000000" font-family="sans-serif" font-size="12" lengthAdjust="spacing" textLength="134.4492" x="68.1533" y="71.1387">Initialize Grid Strategy</text><rect fill="#F1F1F1" height="33.9688" rx="12.5" ry="12.5" style="stroke:#181818;stroke-width:0.5;" width="212.4336" x="29.1611" y="103.9688"/><text fill="#000000" font-family="sans-serif" font-size="12" lengthAdjust="spacing" textLength="192.4336" x="39.1611" y="125.1074">Analyze Price Range &amp; Volatility</text><path d="M244.418,147.9375 L244.418,179.2031 L224.418,183.2031 L244.418,187.2031 L244.418,218.4688 A0,0 0 0 0 244.418,218.4688 L405.3647,218.4688 A0,0 0 0 0 405.3647,218.4688 L405.3647,157.9375 L395.3647,147.9375 L244.418,147.9375 A0,0 0 0 0 244.418,147.9375" fill="#FEFFDD" style="stroke:#181818;stroke-width:0.5;"/><path d="M395.3647,147.9375 L395.3647,157.9375 L405.3647,157.9375 L395.3647,147.9375" fill="#FEFFDD" style="stroke:#181818;stroke-width:0.5;"/><text fill="#000000" font-family="sans-serif" font-size="13" lengthAdjust="spacing" textLength="76.9146" x="250.418" y="165.0044">- Grid count</text><text fill="#000000" font-family="sans-serif" font-size="13" lengthAdjust="spacing" textLength="95.1387" x="250.418" y="180.1372">- Price spacing</text><text fill="#000000" font-family="sans-serif" font-size="13" lengthAdjust="spacing" textLength="82.1069" x="250.418" y="195.27">- Order sizes</text><text fill="#000000" font-family="sans-serif" font-size="13" lengthAdjust="spacing" textLength="139.9468" x="250.418" y="210.4028">- Upper/lower bounds</text><rect fill="#F1F1F1" height="33.9688" rx="12.5" ry="12.5" style="stroke:#181818;stroke-width:0.5;" width="178.0801" x="46.3379" y="166.2188"/><text fill="#000000" font-family="sans-serif" font-size="12" lengthAdjust="spacing" textLength="158.0801" x="56.3379" y="187.3574">Calculate Grid Parameters</text><rect fill="#F1F1F1" height="33.9688" rx="12.5" ry="12.5" style="stroke:#181818;stroke-width:0.5;" width="162.3008" x="54.2275" y="238.4688"/><text fill="#000000" font-family="sans-serif" font-size="12" lengthAdjust="spacing" textLength="142.3008" x="64.2275" y="259.6074">Place Initial Grid Orders</text><rect fill="#F1F1F1" height="33.9688" rx="12.5" ry="12.5" style="stroke:#181818;stroke-width:0.5;" width="173.0645" x="48.8457" y="336.4375"/><text fill="#000000" font-family="sans-serif" font-size="12" lengthAdjust="spacing" textLength="153.0645" x="58.8457" y="357.5762">Monitor Order Executions</text><rect fill="#F1F1F1" height="33.9688" rx="12.5" ry="12.5" style="stroke:#181818;stroke-width:0.5;" width="248.7559" x="11" y="438.8086"/><text fill="#000000" font-family="sans-serif" font-size="12" lengthAdjust="spacing" textLength="228.7559" x="21" y="459.9473">Place Corresponding Sell Order Above</text><rect fill="#F1F1F1" height="33.9688" rx="12.5" ry="12.5" style="stroke:#181818;stroke-width:0.5;" width="218.9023" x="25.9268" y="492.7773"/><text fill="#000000" font-family="sans-serif" font-size="12" lengthAdjust="spacing" textLength="198.9023" x="35.9268" y="513.916">Update Base Asset Accumulation</text><rect fill="#F1F1F1" height="33.9688" rx="12.5" ry="12.5" style="stroke:#181818;stroke-width:0.5;" width="115.8711" x="77.4424" y="546.7461"/><text fill="#000000" font-family="sans-serif" font-size="12" lengthAdjust="spacing" textLength="95.8711" x="87.4424" y="567.8848">Log Transaction</text><polygon fill="#F1F1F1" points="88.0989,390.4063,182.657,390.4063,194.657,402.4063,182.657,414.4063,88.0989,414.4063,76.0989,402.4063,88.0989,390.4063" style="stroke:#181818;stroke-width:0.5;"/><text fill="#000000" font-family="sans-serif" font-size="11" lengthAdjust="spacing" textLength="19.0083" x="139.3779" y="424.6167">yes</text><text fill="#000000" font-family="sans-serif" font-size="11" lengthAdjust="spacing" textLength="94.5581" x="88.0989" y="406.2144">Buy Order Filled?</text><polygon fill="#F1F1F1" points="135.3779,600.7148,147.3779,612.7148,135.3779,624.7148,123.3779,612.7148,135.3779,600.7148" style="stroke:#181818;stroke-width:0.5;"/><rect fill="#F1F1F1" height="33.9688" rx="12.5" ry="12.5" style="stroke:#181818;stroke-width:0.5;" width="248.4805" x="11.1377" y="693.1172"/><text fill="#000000" font-family="sans-serif" font-size="12" lengthAdjust="spacing" textLength="228.4805" x="21.1377" y="714.2559">Place Corresponding Buy Order Below</text><rect fill="#F1F1F1" height="33.9688" rx="12.5" ry="12.5" style="stroke:#181818;stroke-width:0.5;" width="226.1621" x="22.2969" y="747.0859"/><text fill="#000000" font-family="sans-serif" font-size="12" lengthAdjust="spacing" textLength="206.1621" x="32.2969" y="768.2246">Update Quote Asset Accumulation</text><rect fill="#F1F1F1" height="33.9688" rx="12.5" ry="12.5" style="stroke:#181818;stroke-width:0.5;" width="111.6348" x="79.5605" y="816.0547"/><text fill="#000000" font-family="sans-serif" font-size="12" lengthAdjust="spacing" textLength="91.6348" x="89.5605" y="837.1934">Calculate Profit</text><rect fill="#F1F1F1" height="33.9688" rx="12.5" ry="12.5" style="stroke:#181818;stroke-width:0.5;" width="115.8711" x="77.4424" y="870.0234"/><text fill="#000000" font-family="sans-serif" font-size="12" lengthAdjust="spacing" textLength="95.8711" x="87.4424" y="891.1621">Log Transaction</text><polygon fill="#F1F1F1" points="88.6816,644.7148,182.0742,644.7148,194.0742,656.7148,182.0742,668.7148,88.6816,668.7148,76.6816,656.7148,88.6816,644.7148" style="stroke:#181818;stroke-width:0.5;"/><text fill="#000000" font-family="sans-serif" font-size="11" lengthAdjust="spacing" textLength="19.0083" x="139.3779" y="678.9253">yes</text><text fill="#000000" font-family="sans-serif" font-size="11" lengthAdjust="spacing" textLength="93.3926" x="88.6816" y="660.5229">Sell Order Filled?</text><polygon fill="#F1F1F1" points="135.3779,928.3945,147.3779,940.3945,135.3779,952.3945,123.3779,940.3945,135.3779,928.3945" style="stroke:#181818;stroke-width:0.5;"/><rect fill="#F1F1F1" height="33.9688" rx="12.5" ry="12.5" style="stroke:#181818;stroke-width:0.5;" width="174.3359" x="48.21" y="1020.7969"/><text fill="#000000" font-family="sans-serif" font-size="12" lengthAdjust="spacing" textLength="154.3359" x="58.21" y="1041.9355">Evaluate Grid Adjustment</text><rect fill="#F1F1F1" height="33.9688" rx="12.5" ry="12.5" style="stroke:#181818;stroke-width:0.5;" width="156.377" x="57.1895" y="1123.168"/><text fill="#000000" font-family="sans-serif" font-size="12" lengthAdjust="spacing" textLength="136.377" x="67.1895" y="1144.3066">Cancel Existing Orders</text><rect fill="#F1F1F1" height="33.9688" rx="12.5" ry="12.5" style="stroke:#181818;stroke-width:0.5;" width="192.0195" x="39.3682" y="1192.1367"/><text fill="#000000" font-family="sans-serif" font-size="12" lengthAdjust="spacing" textLength="172.0195" x="49.3682" y="1213.2754">Recalculate Grid Parameters</text><rect fill="#F1F1F1" height="33.9688" rx="12.5" ry="12.5" style="stroke:#181818;stroke-width:0.5;" width="155.2695" x="57.7432" y="1246.1055"/><text fill="#000000" font-family="sans-serif" font-size="12" lengthAdjust="spacing" textLength="135.2695" x="67.7432" y="1267.2441">Place New Grid Orders</text><polygon fill="#F1F1F1" points="77.7891,1074.7656,192.9668,1074.7656,204.9668,1086.7656,192.9668,1098.7656,77.7891,1098.7656,65.7891,1086.7656,77.7891,1074.7656" style="stroke:#181818;stroke-width:0.5;"/><text fill="#000000" font-family="sans-serif" font-size="11" lengthAdjust="spacing" textLength="19.0083" x="139.3779" y="1108.9761">yes</text><text fill="#000000" font-family="sans-serif" font-size="11" lengthAdjust="spacing" textLength="115.1777" x="77.7891" y="1090.5737">Adjustment Needed?</text><polygon fill="#F1F1F1" points="135.3779,1300.0742,147.3779,1312.0742,135.3779,1324.0742,123.3779,1312.0742,135.3779,1300.0742" style="stroke:#181818;stroke-width:0.5;"/><polygon fill="#F1F1F1" points="56.2,972.3945,214.5559,972.3945,226.5559,984.3945,214.5559,996.3945,56.2,996.3945,44.2,984.3945,56.2,972.3945" style="stroke:#181818;stroke-width:0.5;"/><text fill="#000000" font-family="sans-serif" font-size="11" lengthAdjust="spacing" textLength="19.0083" x="139.3779" y="1006.605">yes</text><text fill="#000000" font-family="sans-serif" font-size="11" lengthAdjust="spacing" textLength="158.356" x="56.2" y="988.2026">Market Conditions Changed?</text><polygon fill="#F1F1F1" points="135.3779,1344.0742,147.3779,1356.0742,135.3779,1368.0742,123.3779,1356.0742,135.3779,1344.0742" style="stroke:#181818;stroke-width:0.5;"/><rect fill="#F1F1F1" height="33.9688" rx="12.5" ry="12.5" style="stroke:#181818;stroke-width:0.5;" width="128.0352" x="71.3604" y="1388.0742"/><text fill="#000000" font-family="sans-serif" font-size="12" lengthAdjust="spacing" textLength="108.0352" x="81.3604" y="1409.2129">Update Grid State</text><rect fill="#F1F1F1" height="33.9688" rx="12.5" ry="12.5" style="stroke:#181818;stroke-width:0.5;" width="159.0723" x="55.8418" y="1442.043"/><text fill="#000000" font-family="sans-serif" font-size="12" lengthAdjust="spacing" textLength="139.0723" x="65.8418" y="1463.1816">Check Campaign Goals</text><polygon fill="#F1F1F1" points="135.3779,292.4375,147.3779,304.4375,135.3779,316.4375,123.3779,304.4375,135.3779,292.4375" style="stroke:#181818;stroke-width:0.5;"/><polygon fill="#F1F1F1" points="76.7444,1496.0117,194.0115,1496.0117,206.0115,1508.0117,194.0115,1520.0117,76.7444,1520.0117,64.7444,1508.0117,76.7444,1496.0117" style="stroke:#181818;stroke-width:0.5;"/><text fill="#000000" font-family="sans-serif" font-size="11" lengthAdjust="spacing" textLength="117.2671" x="76.7444" y="1511.8198">Grid Strategy Active?</text><ellipse cx="135.3779" cy="1551.0117" fill="none" rx="11" ry="11" style="stroke:#222222;stroke-width:1;"/><ellipse cx="135.3779" cy="1551.0117" fill="#222222" rx="6" ry="6" style="stroke:#222222;stroke-width:1;"/><line style="stroke:#181818;stroke-width:1;" x1="135.3779" x2="135.3779" y1="30" y2="50"/><polygon fill="#181818" points="131.3779,40,135.3779,50,139.3779,40,135.3779,44" style="stroke:#181818;stroke-width:1;"/><line style="stroke:#181818;stroke-width:1;" x1="135.3779" x2="135.3779" y1="83.9688" y2="103.9688"/><polygon fill="#181818" points="131.3779,93.9688,135.3779,103.9688,139.3779,93.9688,135.3779,97.9688" style="stroke:#181818;stroke-width:1;"/><line style="stroke:#181818;stroke-width:1;" x1="135.3779" x2="135.3779" y1="137.9375" y2="166.2188"/><polygon fill="#181818" points="131.3779,156.2188,135.3779,166.2188,139.3779,156.2188,135.3779,160.2188" style="stroke:#181818;stroke-width:1;"/><line style="stroke:#181818;stroke-width:1;" x1="135.3779" x2="135.3779" y1="200.1875" y2="238.4688"/><polygon fill="#181818" points="131.3779,228.4688,135.3779,238.4688,139.3779,228.4688,135.3779,232.4688" style="stroke:#181818;stroke-width:1;"/><line style="stroke:#181818;stroke-width:1;" x1="135.3779" x2="135.3779" y1="472.7773" y2="492.7773"/><polygon fill="#181818" points="131.3779,482.7773,135.3779,492.7773,139.3779,482.7773,135.3779,486.7773" style="stroke:#181818;stroke-width:1;"/><line style="stroke:#181818;stroke-width:1;" x1="135.3779" x2="135.3779" y1="526.7461" y2="546.7461"/><polygon fill="#181818" points="131.3779,536.7461,135.3779,546.7461,139.3779,536.7461,135.3779,540.7461" style="stroke:#181818;stroke-width:1;"/><line style="stroke:#181818;stroke-width:1;" x1="135.3779" x2="135.3779" y1="414.4063" y2="438.8086"/><polygon fill="#181818" points="131.3779,428.8086,135.3779,438.8086,139.3779,428.8086,135.3779,432.8086" style="stroke:#181818;stroke-width:1;"/><line style="stroke:#181818;stroke-width:1;" x1="194.657" x2="269.7559" y1="402.4063" y2="402.4063"/><polygon fill="#181818" points="265.7559,499.7617,269.7559,509.7617,273.7559,499.7617,269.7559,503.7617" style="stroke:#181818;stroke-width:1;"/><line style="stroke:#181818;stroke-width:1;" x1="269.7559" x2="269.7559" y1="402.4063" y2="612.7148"/><line style="stroke:#181818;stroke-width:1;" x1="269.7559" x2="147.3779" y1="612.7148" y2="612.7148"/><polygon fill="#181818" points="157.3779,608.7148,147.3779,612.7148,157.3779,616.7148,153.3779,612.7148" style="stroke:#181818;stroke-width:1;"/><line style="stroke:#181818;stroke-width:1;" x1="135.3779" x2="135.3779" y1="580.7148" y2="600.7148"/><polygon fill="#181818" points="131.3779,590.7148,135.3779,600.7148,139.3779,590.7148,135.3779,594.7148" style="stroke:#181818;stroke-width:1;"/><line style="stroke:#181818;stroke-width:1;" x1="135.3779" x2="135.3779" y1="370.4063" y2="390.4063"/><polygon fill="#181818" points="131.3779,380.4063,135.3779,390.4063,139.3779,380.4063,135.3779,384.4063" style="stroke:#181818;stroke-width:1;"/><line style="stroke:#181818;stroke-width:1;" x1="135.3779" x2="135.3779" y1="727.0859" y2="747.0859"/><polygon fill="#181818" points="131.3779,737.0859,135.3779,747.0859,139.3779,737.0859,135.3779,741.0859" style="stroke:#181818;stroke-width:1;"/><line style="stroke:#181818;stroke-width:1;" x1="135.3779" x2="135.3779" y1="781.0547" y2="816.0547"/><polygon fill="#181818" points="131.3779,806.0547,135.3779,816.0547,139.3779,806.0547,135.3779,810.0547" style="stroke:#181818;stroke-width:1;"/><line style="stroke:#181818;stroke-width:1;" x1="135.3779" x2="135.3779" y1="850.0234" y2="870.0234"/><polygon fill="#181818" points="131.3779,860.0234,135.3779,870.0234,139.3779,860.0234,135.3779,864.0234" style="stroke:#181818;stroke-width:1;"/><line style="stroke:#181818;stroke-width:1;" x1="135.3779" x2="135.3779" y1="668.7148" y2="693.1172"/><polygon fill="#181818" points="131.3779,683.1172,135.3779,693.1172,139.3779,683.1172,135.3779,687.1172" style="stroke:#181818;stroke-width:1;"/><line style="stroke:#181818;stroke-width:1;" x1="194.0742" x2="269.6182" y1="656.7148" y2="656.7148"/><polygon fill="#181818" points="265.6182,788.5547,269.6182,798.5547,273.6182,788.5547,269.6182,792.5547" style="stroke:#181818;stroke-width:1;"/><line style="stroke:#181818;stroke-width:1;" x1="269.6182" x2="269.6182" y1="656.7148" y2="940.3945"/><line style="stroke:#181818;stroke-width:1;" x1="269.6182" x2="147.3779" y1="940.3945" y2="940.3945"/><polygon fill="#181818" points="157.3779,936.3945,147.3779,940.3945,157.3779,944.3945,153.3779,940.3945" style="stroke:#181818;stroke-width:1;"/><line style="stroke:#181818;stroke-width:1;" x1="135.3779" x2="135.3779" y1="903.9922" y2="928.3945"/><polygon fill="#181818" points="131.3779,918.3945,135.3779,928.3945,139.3779,918.3945,135.3779,922.3945" style="stroke:#181818;stroke-width:1;"/><line style="stroke:#181818;stroke-width:1;" x1="135.3779" x2="135.3779" y1="624.7148" y2="644.7148"/><polygon fill="#181818" points="131.3779,634.7148,135.3779,644.7148,139.3779,634.7148,135.3779,638.7148" style="stroke:#181818;stroke-width:1;"/><line style="stroke:#181818;stroke-width:1;" x1="135.3779" x2="135.3779" y1="1157.1367" y2="1192.1367"/><polygon fill="#181818" points="131.3779,1182.1367,135.3779,1192.1367,139.3779,1182.1367,135.3779,1186.1367" style="stroke:#181818;stroke-width:1;"/><line style="stroke:#181818;stroke-width:1;" x1="135.3779" x2="135.3779" y1="1226.1055" y2="1246.1055"/><polygon fill="#181818" points="131.3779,1236.1055,135.3779,1246.1055,139.3779,1236.1055,135.3779,1240.1055" style="stroke:#181818;stroke-width:1;"/><line style="stroke:#181818;stroke-width:1;" x1="135.3779" x2="135.3779" y1="1098.7656" y2="1123.168"/><polygon fill="#181818" points="131.3779,1113.168,135.3779,1123.168,139.3779,1113.168,135.3779,1117.168" style="stroke:#181818;stroke-width:1;"/><line style="stroke:#181818;stroke-width:1;" x1="204.9668" x2="241.3877" y1="1086.7656" y2="1086.7656"/><polygon fill="#181818" points="237.3877,1199.1211,241.3877,1209.1211,245.3877,1199.1211,241.3877,1203.1211" style="stroke:#181818;stroke-width:1;"/><line style="stroke:#181818;stroke-width:1;" x1="241.3877" x2="241.3877" y1="1086.7656" y2="1312.0742"/><line style="stroke:#181818;stroke-width:1;" x1="241.3877" x2="147.3779" y1="1312.0742" y2="1312.0742"/><polygon fill="#181818" points="157.3779,1308.0742,147.3779,1312.0742,157.3779,1316.0742,153.3779,1312.0742" style="stroke:#181818;stroke-width:1;"/><line style="stroke:#181818;stroke-width:1;" x1="135.3779" x2="135.3779" y1="1280.0742" y2="1300.0742"/><polygon fill="#181818" points="131.3779,1290.0742,135.3779,1300.0742,139.3779,1290.0742,135.3779,1294.0742" style="stroke:#181818;stroke-width:1;"/><line style="stroke:#181818;stroke-width:1;" x1="135.3779" x2="135.3779" y1="1054.7656" y2="1074.7656"/><polygon fill="#181818" points="131.3779,1064.7656,135.3779,1074.7656,139.3779,1064.7656,135.3779,1068.7656" style="stroke:#181818;stroke-width:1;"/><line style="stroke:#181818;stroke-width:1;" x1="135.3779" x2="135.3779" y1="996.3945" y2="1020.7969"/><polygon fill="#181818" points="131.3779,1010.7969,135.3779,1020.7969,139.3779,1010.7969,135.3779,1014.7969" style="stroke:#181818;stroke-width:1;"/><line style="stroke:#181818;stroke-width:1;" x1="226.5559" x2="263.3877" y1="984.3945" y2="984.3945"/><polygon fill="#181818" points="259.3877,1164.6367,263.3877,1174.6367,267.3877,1164.6367,263.3877,1168.6367" style="stroke:#181818;stroke-width:1;"/><line style="stroke:#181818;stroke-width:1;" x1="263.3877" x2="263.3877" y1="984.3945" y2="1356.0742"/><line style="stroke:#181818;stroke-width:1;" x1="263.3877" x2="147.3779" y1="1356.0742" y2="1356.0742"/><polygon fill="#181818" points="157.3779,1352.0742,147.3779,1356.0742,157.3779,1360.0742,153.3779,1356.0742" style="stroke:#181818;stroke-width:1;"/><line style="stroke:#181818;stroke-width:1;" x1="135.3779" x2="135.3779" y1="1324.0742" y2="1344.0742"/><polygon fill="#181818" points="131.3779,1334.0742,135.3779,1344.0742,139.3779,1334.0742,135.3779,1338.0742" style="stroke:#181818;stroke-width:1;"/><line style="stroke:#181818;stroke-width:1;" x1="135.3779" x2="135.3779" y1="952.3945" y2="972.3945"/><polygon fill="#181818" points="131.3779,962.3945,135.3779,972.3945,139.3779,962.3945,135.3779,966.3945" style="stroke:#181818;stroke-width:1;"/><line style="stroke:#181818;stroke-width:1;" x1="135.3779" x2="135.3779" y1="1368.0742" y2="1388.0742"/><polygon fill="#181818" points="131.3779,1378.0742,135.3779,1388.0742,139.3779,1378.0742,135.3779,1382.0742" style="stroke:#181818;stroke-width:1;"/><line style="stroke:#181818;stroke-width:1;" x1="135.3779" x2="135.3779" y1="1422.043" y2="1442.043"/><polygon fill="#181818" points="131.3779,1432.043,135.3779,1442.043,139.3779,1432.043,135.3779,1436.043" style="stroke:#181818;stroke-width:1;"/><line style="stroke:#181818;stroke-width:1;" x1="135.3779" x2="135.3779" y1="316.4375" y2="336.4375"/><polygon fill="#181818" points="131.3779,326.4375,135.3779,336.4375,139.3779,326.4375,135.3779,330.4375" style="stroke:#181818;stroke-width:1;"/><line style="stroke:#181818;stroke-width:1;" x1="206.0115" x2="293.7559" y1="1508.0117" y2="1508.0117"/><polygon fill="#181818" points="289.7559,910.9258,293.7559,900.9258,297.7559,910.9258,293.7559,906.9258" style="stroke:#181818;stroke-width:1;"/><line style="stroke:#181818;stroke-width:1;" x1="293.7559" x2="293.7559" y1="304.4375" y2="1508.0117"/><line style="stroke:#181818;stroke-width:1;" x1="293.7559" x2="147.3779" y1="304.4375" y2="304.4375"/><polygon fill="#181818" points="157.3779,300.4375,147.3779,304.4375,157.3779,308.4375,153.3779,304.4375" style="stroke:#181818;stroke-width:1;"/><line style="stroke:#181818;stroke-width:1;" x1="135.3779" x2="135.3779" y1="1476.0117" y2="1496.0117"/><polygon fill="#181818" points="131.3779,1486.0117,135.3779,1496.0117,139.3779,1486.0117,135.3779,1490.0117" style="stroke:#181818;stroke-width:1;"/><line style="stroke:#181818;stroke-width:1;" x1="135.3779" x2="135.3779" y1="272.4375" y2="292.4375"/><polygon fill="#181818" points="131.3779,282.4375,135.3779,292.4375,139.3779,282.4375,135.3779,286.4375" style="stroke:#181818;stroke-width:1;"/><line style="stroke:#181818;stroke-width:1;" x1="135.3779" x2="135.3779" y1="1520.0117" y2="1540.0117"/><polygon fill="#181818" points="131.3779,1530.0117,135.3779,1540.0117,139.3779,1530.0117,135.3779,1534.0117" style="stroke:#181818;stroke-width:1;"/><!--SRC=[bLDDRzim3BthL_0q98TXT-TGE4PN35Yxh5rtPoN6vgf8XYGdotxzA4jP6g05Ei0GBFBnyV53CM58gldYE35Q_aDm4zZ0GmgOg3-kLDCwj4UnRm9hWdjqFS47-Eaj9hQSCgH3goUvr-0D1jnHeX1Nodcn1kw7f00-5h_saolNmXb7rEpwsV8j60eGHKYSxu_ZIE6JzGUnFacSYOgSWKohLBEnAF5LV26V2IIn2ZGIvZJDhHU03vNx-ZVfAR5t0WAGZxUmM4_7wlxCrfAvMa8QoC7YI74f664fkJeV0iNHEoEAuO6ihN7jaz_Jga0VHvERiSP8qCP82LgjfrrkaUIjeA- -Xny1NKHziafbl3sBUi7-NwhEnQn9EdSfwlkK9_AcglCeDy5lERrRx2s6Pw7iieQvkz0DULTU4tszHplzMvVM_9fYsf6hoUOZKvuTS4TaNgEQ5JjDLiRACUNgJmjGtVUatzxEYYbDlAF3vGfbtwdA5zMUEbaVYlncQDCDf9-Xmzs8t3kuyMZBXfL5XCF0bc1nyRna0edtTBLKAYO__WK0]--></g></svg>